<svg width="378" height="146" viewBox="0 0 378 146" fill="none" xmlns="http://www.w3.org/2000/svg" fill="currentColor">
<path fill-rule="evenodd" clip-rule="evenodd" d="M311.624 72.2636C311.624 99.6172 302.518 124.857 287.154 145.153H283.21C299.059 125.068 308.508 99.7612 308.508 72.2636C308.508 45.0508 299.254 19.9839 283.7 0H287.625C302.704 20.1883 311.624 45.1904 311.624 72.2636Z"/>
<path d="M67.3108 72.2636C67.3108 45.1904 76.231 20.1883 91.3099 0H95.2346C79.6813 19.9839 70.4271 45.0508 70.4271 72.2636C70.4271 99.7612 79.876 125.068 95.7249 145.153H91.7804C76.4167 124.857 67.3108 99.6172 67.3108 72.2636Z"/>
<path fill-rule="evenodd" clip-rule="evenodd" d="M51.6722 20.6468H56.0924L4.42019 72.5765L56.0924 124.506H51.6722L4.19617e-05 72.5765L51.6722 20.6468Z"/>
<path fill-rule="evenodd" clip-rule="evenodd" d="M326.016 20.6468H321.596L373.268 72.5765L321.596 124.506H326.016L377.688 72.5765L326.016 20.6468Z"/>
<path fill-rule="evenodd" clip-rule="evenodd" d="M138.894 21.3629C136.652 20.8855 134.482 20.6468 132.383 20.6468H115.924V122.629H119.073V74.3594H134.529L150.845 122.629H154.566L137.964 73.7865C139.872 73.4045 141.637 72.6645 143.259 71.5664C144.881 70.4682 146.289 68.9165 147.481 66.9113C148.674 64.906 149.604 62.3517 150.272 59.2483C150.94 56.1448 151.274 52.3969 151.274 48.0044C151.274 41.7021 150.701 36.7367 149.556 33.1081C148.412 29.4795 146.909 26.7342 145.048 24.8722C143.188 23.0101 141.136 21.8404 138.894 21.3629ZM119.073 71.4948V23.5115H132.526C138.25 23.5115 142.281 25.4451 144.619 29.3124C146.956 33.1798 148.125 39.4104 148.125 48.0044C148.125 56.503 146.861 62.5427 144.333 66.1235C141.804 69.7044 137.869 71.4948 132.526 71.4948H119.073Z"/>
<path fill-rule="evenodd" clip-rule="evenodd" d="M205.672 104.237C205.672 110.546 203.857 115.517 200.228 119.149C197.077 122.303 192.971 123.881 187.909 123.881C182.848 123.881 178.741 122.303 175.59 119.149C173.871 117.428 172.534 115.326 171.579 112.84C170.624 110.355 170.147 107.487 170.147 104.237V20.6468H173.298V103.807C173.298 109.543 174.707 113.844 177.524 116.711C180.341 119.579 183.803 121.013 187.909 121.013C192.016 121.013 195.477 119.579 198.295 116.711C201.112 113.844 202.52 109.543 202.52 103.807V20.6468H205.672V104.237Z"/>
<path fill-rule="evenodd" clip-rule="evenodd" d="M268.126 122.629H264.976V32.8515L247.913 88.7206H245.335L228.142 32.8515V122.629H224.993V20.6468H228.142L246.624 83.2777L264.976 20.6468H268.126V122.629Z"/>
</svg>
