<svg width="541" height="112" viewBox="0 0 541 112" fill="none" xmlns="http://www.w3.org/2000/svg">
<rect width="541" height="112" fill="white"/>
<path d="M38.42 96.36H50.3V21.96H79.34V11.64H9.38V21.96H38.42V96.36Z" fill="#BD1952"/>
<path d="M85.7 53.4C85.7 78.36 104.78 97.8 129.26 97.8C153.74 97.8 172.7 78.36 172.7 53.4C172.7 29.04 153.74 10.2 129.26 10.2C104.78 10.2 85.7 29.04 85.7 53.4ZM97.9399 53.4C97.9399 34.92 111.98 21 129.26 21C146.54 21 160.46 34.92 160.46 53.4C160.46 72.48 146.54 86.88 129.26 86.88C111.98 86.88 97.9399 72.48 97.9399 53.4Z" fill="#BD1952"/>
<path d="M275.18 53.88C275.18 79.8 294.02 97.8 316.82 97.8C333.62 97.8 342.86 87.48 342.86 87.48H343.1C343.1 87.48 342.98 89.28 342.98 91.08V96.36H353.42V53.76H328.82V64.08H342.62V76.32C342.62 76.32 333.26 86.88 318.62 86.88C300.86 86.88 287.42 73.32 287.42 53.64C287.42 35.52 299.42 21 319.34 21C333.74 21 343.22 29.28 343.22 29.28L349.22 20.4C349.22 20.4 338.66 10.2 318.38 10.2C293.66 10.2 275.18 29.4 275.18 53.88Z" fill="#BD1952"/>
<path d="M373.82 61.36C373.82 85.2 390.38 99.8 410.18 99.8C429.98 99.8 446.54 85.2 446.54 61.36V11.64H434.66V61.12C434.66 79.32 423.14 88.88 410.06 88.88C397.1 88.88 385.7 79.32 385.7 61.36V11.64H373.82V61.36Z" fill="#BD1952"/>
<path d="M201.86 96.36H189.98V11.64H201.74L239.42 66.72C248.287 79.6791 245.9 83.4473 245.9 66.72V11.64H257.78V96.36H246.14L208.34 41.4C205.22 36.72 201.26 29.04 201.26 29.04H201.02C201.02 29.04 201.86 36.6 201.86 41.4V96.36Z" fill="#BD1952"/>
<path d="M404.78 18.56H415.78V67.56H404.78V18.56Z" fill="#BD1952"/>
<path d="M524.62 96.36H468.38V11.64H522.58V21.96H480.26V48.48H515.62V58.8H480.26V86.04H524.62V96.36Z" fill="#BD1952"/>
</svg>
