<svg width="256" height="256" viewBox="0 0 256 256" fill="none" xmlns="http://www.w3.org/2000/svg">
<rect width="256" height="256" fill="white"/>
<path d="M26.5192 75.0383L24.6887 75.9535V78V178V180.046L26.5192 180.962L46.5192 190.962L48.3827 191.893L50.0291 190.617L98.1582 153.296L175.204 230.341L176.743 231.88L178.766 231.078L229.22 211.078L231.311 210.249V208V48V45.7506L229.22 44.9218L178.766 24.9218L176.731 24.1153L175.192 25.6709L98.6123 103.057L50.0291 65.3833L48.3827 64.1066L46.5192 65.0383L26.5192 75.0383Z" fill="white" stroke="white" stroke-width="6.62252"/>
<path d="M48 68L28 78.3817L177.545 228L228 208V48H227L177.545 86V87.5455V168.455L48 68Z" fill="url(#paint0_linear)"/>
<path d="M28 178L48 188L177.545 87.5454L228 48L177.545 28L48 158.909V98L28 78.3817V178Z" fill="url(#paint1_linear)"/>
<defs>
<linearGradient id="paint0_linear" x1="121.13" y1="131.817" x2="51.6641" y2="82.9618" gradientUnits="userSpaceOnUse">
<stop stop-color="#5881D9"/>
<stop offset="1" stop-color="#91DD47"/>
</linearGradient>
<linearGradient id="paint1_linear" x1="51.6641" y1="107.389" x2="163.878" y2="68.458" gradientUnits="userSpaceOnUse">
<stop stop-color="#91DC47"/>
<stop offset="1" stop-color="#5881D8"/>
</linearGradient>
</defs>
</svg>
