<svg width="256" height="256" viewBox="0 0 256 256" fill="none" xmlns="http://www.w3.org/2000/svg">
<g clip-path="url(#clip0)">
<rect width="256" height="256" fill="white"/>
<path d="M49.8896 167V105.34H72.2871V89.4951H7.8877V105.34H30.2314V167H49.8896ZM92.6758 154.646C87.8955 154.646 84.7266 152.283 84.7266 148.47C84.7266 144.871 87.6807 142.669 93.3203 142.239L103.364 141.595V145.516C103.364 150.672 98.6914 154.646 92.6758 154.646ZM85.7471 167.913C93.3203 167.913 99.873 164.69 102.559 159.588H103.579V167H122.056V126.233C122.056 113.343 112.656 105.823 96.167 105.823C80 105.823 69.4189 113.021 68.5596 124.622H85.6396C86.875 121.453 90.0977 119.788 95.0928 119.788C100.356 119.788 103.364 122.205 103.364 126.233V130.906L90.3125 131.658C74.8975 132.571 66.4111 138.909 66.4111 149.812C66.4111 160.77 74.2529 167.913 85.7471 167.913ZM129.661 125.213C129.661 134.612 135.516 140.467 147.386 142.991L158.504 145.354C163.284 146.375 165.057 147.718 165.057 150.242C165.057 153.465 161.673 155.56 156.463 155.56C150.877 155.56 147.493 153.572 146.526 149.866H128.211C129.285 161.897 139.061 168.396 156.194 168.396C172.898 168.396 183.802 160.447 183.802 148.04C183.802 138.963 178.699 134.075 166.937 131.604L154.583 129.08C149.856 128.06 147.708 126.556 147.708 124.031C147.708 120.809 151.146 118.66 156.087 118.66C161.243 118.66 164.412 120.755 164.949 124.246H182.244C181.546 112.215 172.469 105.823 155.926 105.823C139.812 105.823 129.661 113.343 129.661 125.213ZM210.797 129.563H209.776V84.8223H190.816V167H209.776V148.255L213.429 144.119L228.36 167H250.489L227.716 132.894L249.039 107.22H227.77L210.797 129.563Z" fill="black"/>
<path d="M-29 137L267 137" stroke="black" stroke-width="17" stroke-linecap="round"/>
</g>
<defs>
<clipPath id="clip0">
<rect width="256" height="256" fill="white"/>
</clipPath>
</defs>
</svg>
