<svg width="620" height="168" viewBox="0 0 620 168" fill="none" xmlns="http://www.w3.org/2000/svg">
<path d="M559 0H0L61 168H620L559 0Z" fill="#D40000"/>
<path d="M395.464 18H414.215L462.842 149H440.539L405.363 49.0159H405.002L368.924 149H347L395.464 18Z" fill="white"/>
<path d="M490.536 149H471.785L423.158 18H445.461L480.637 117.984H480.998L517.076 18H539L490.536 149Z" fill="white"/>
<path d="M133.746 75.8518H171.913C179.362 75.7311 184.948 73.5583 188.672 69.3333C192.336 65.4101 194.169 60.5816 194.169 54.8477C194.048 47.9671 191.856 42.9877 187.591 39.9095C184.227 37.1934 179.362 35.8354 172.994 35.8354H148.739L133.746 75.8518ZM133.439 18H173.175C184.107 18 193.027 20.8971 199.935 26.6914C208.285 33.2702 212.64 42.6557 213 54.8477C212.76 72.7737 204.29 84.9657 187.591 91.4239L184.185 92.637L205.576 150H184.185L164.218 93.5967H127.979L107.219 150H85L133.439 18Z" fill="white"/>
<path fill-rule="evenodd" clip-rule="evenodd" d="M286.5 132.3C313.369 132.3 335.15 110.675 335.15 84C335.15 57.3246 313.369 35.7 286.5 35.7C259.631 35.7 237.85 57.3246 237.85 84C237.85 110.675 259.631 132.3 286.5 132.3ZM286.5 153C324.884 153 356 122.108 356 84C356 45.8924 324.884 15 286.5 15C248.116 15 217 45.8924 217 84C217 122.108 248.116 153 286.5 153Z" fill="white"/>
</svg>
