<svg width="1171" height="1255" viewBox="0 0 1171 1255" fill="none" xmlns="http://www.w3.org/2000/svg">
<g clip-path="url(#clip0)">
<rect width="1171" height="1255" fill="white"/>
<path d="M352.84 586.158H371.353V603.932C377.113 596.526 384.107 591.095 392.335 587.639C400.728 584.183 409.614 582.455 418.994 582.455C434.628 582.455 446.23 586.57 453.799 594.798C461.534 603.027 465.401 614.053 465.401 627.876V704.648H446.394V629.604C446.394 619.401 443.926 611.584 438.989 606.153C434.052 600.558 426.153 597.76 415.292 597.76C397.025 597.76 382.544 605.989 371.847 622.446V704.648H352.84V586.158Z" fill="#334444"/>
<path d="M550.025 708.351C528.467 708.351 511.599 702.838 499.421 691.811C487.408 680.785 481.402 665.398 481.402 645.65C481.402 626.231 486.832 610.844 497.694 599.488C508.555 588.133 524.024 582.455 544.1 582.455C557.595 582.455 569.032 585.089 578.412 590.355C587.792 595.456 594.868 602.533 599.641 611.584C604.413 620.635 606.799 630.921 606.799 642.441V652.809H499.175C499.833 666.303 504.77 676.424 513.985 683.172C523.365 689.919 536.037 693.293 551.999 693.293C559.734 693.293 567.304 692.634 574.709 691.318C582.279 689.837 589.026 687.862 594.95 685.393V701.439C590.014 703.413 583.266 705.059 574.709 706.376C566.316 707.692 558.088 708.351 550.025 708.351ZM589.026 639.232C588.697 626.395 584.748 616.274 577.178 608.869C569.608 601.463 558.5 597.76 543.854 597.76C529.537 597.76 518.593 601.628 511.023 609.362C503.453 616.933 499.504 626.889 499.175 639.232H589.026Z" fill="#334444"/>
<path d="M684.9 708.351C672.064 708.351 660.627 705.8 650.589 700.698C640.715 695.596 632.981 688.355 627.386 678.975C621.955 669.43 619.24 658.322 619.24 645.65C619.24 633.143 622.037 622.117 627.632 612.572C633.228 603.027 640.962 595.621 650.836 590.355C660.874 585.089 672.229 582.455 684.9 582.455C697.572 582.455 708.844 585.089 718.718 590.355C728.757 595.621 736.573 603.027 742.168 612.572C747.764 622.117 750.561 633.143 750.561 645.65C750.561 658.322 747.764 669.43 742.168 678.975C736.738 688.355 729.003 695.596 718.965 700.698C709.091 705.8 697.736 708.351 684.9 708.351ZM684.9 693.293C699.053 693.293 710.325 689.014 718.718 680.456C727.275 671.734 731.554 660.132 731.554 645.65C731.554 631.003 727.275 619.401 718.718 610.844C710.325 602.121 699.053 597.76 684.9 597.76C670.748 597.76 659.393 602.121 650.836 610.844C642.443 619.401 638.247 631.003 638.247 645.65C638.247 660.132 642.443 671.734 650.836 680.456C659.393 689.014 670.748 693.293 684.9 693.293Z" fill="#334444"/>
<path d="M760.394 586.158H791.744L823.834 668.114L855.924 586.158H887.273L838.398 704.648H809.27L760.394 586.158Z" fill="#334444"/>
<path d="M917.079 565.423C912.142 565.423 907.946 563.777 904.49 560.486C901.199 557.194 899.553 553.08 899.553 548.143C899.553 543.206 901.199 539.092 904.49 535.8C907.946 532.344 912.142 530.616 917.079 530.616C922.016 530.616 926.213 532.344 929.668 535.8C933.124 539.092 934.852 543.206 934.852 548.143C934.852 553.08 933.124 557.194 929.668 560.486C926.213 563.777 922.016 565.423 917.079 565.423ZM901.281 586.158H932.877V704.648H901.281V586.158Z" fill="#334444"/>
<path d="M952.056 586.158H981.184V601.71C986.45 595.456 992.621 590.684 999.697 587.393C1006.77 584.101 1013.93 582.455 1021.17 582.455C1030.39 582.455 1037.79 584.019 1043.39 587.146C1048.98 590.108 1053.18 594.634 1055.98 600.723C1061.24 594.798 1067.58 590.273 1074.99 587.146C1082.55 584.019 1090.04 582.455 1097.45 582.455C1112.26 582.455 1122.87 586.158 1129.29 593.564C1135.71 600.969 1138.92 611.831 1138.92 626.148V704.648H1109.05V630.345C1109.05 621.952 1107.32 615.945 1103.87 612.325C1100.57 608.704 1095.23 606.894 1087.82 606.894C1082.55 606.894 1077.7 607.964 1073.26 610.103C1068.98 612.078 1065.03 615.534 1061.41 620.471C1061.74 625.737 1061.9 630.016 1061.9 633.307V704.648H1031.79V629.851C1031.79 621.294 1030.39 615.369 1027.59 612.078C1024.79 608.622 1019.69 606.894 1012.29 606.894C1001.1 606.894 991.058 613.23 982.171 625.902V704.648H952.056V586.158Z" fill="#334444"/>
<path d="M102.516 626.591V497L206.064 644.83V783.06L102.516 626.591Z" fill="url(#paint0_linear)"/>
<path d="M27.7305 538.451C27.7305 536.576 28.7791 534.859 30.4467 534.003L102.516 497V783.06L30.4467 746.057C28.7791 745.201 27.7305 743.484 27.7305 741.609V538.451Z" fill="url(#paint1_linear)"/>
<path d="M278.932 741.645C278.932 743.501 277.904 745.203 276.263 746.068L206.064 783.059V497L276.263 533.991C277.904 534.856 278.932 536.559 278.932 538.414V741.645Z" fill="url(#paint2_linear)"/>
<path fill-rule="evenodd" clip-rule="evenodd" d="M59.6262 60.6053L121.361 0V281.794L59.6262 221.889V60.6053Z" fill="url(#paint3_linear)"/>
<path fill-rule="evenodd" clip-rule="evenodd" d="M298.166 61.1776L235.585 0.0328369L236.854 281.794L298.589 221.889L298.166 61.1776Z" fill="url(#paint4_linear)"/>
<path fill-rule="evenodd" clip-rule="evenodd" d="M121.32 0.0481567L281.825 238.198L236.911 281.869L76.3219 44.246L121.32 0.0481567Z" fill="url(#paint5_linear)"/>
<path fill-rule="evenodd" clip-rule="evenodd" d="M121.375 110.508L121.29 119.888L71.7332 48.7496L76.3219 44.2045L121.375 110.508Z" fill="black" fill-opacity="0.13"/>
<path fill-rule="evenodd" clip-rule="evenodd" d="M368.288 203.436V84.4877H374.646C376.764 84.4877 377.987 85.4847 378.314 87.4763L379.415 105.408C384.958 98.5559 391.417 93.0352 398.794 88.8511C406.17 84.667 414.384 82.575 423.432 82.575C430.115 82.575 436.006 83.6126 441.1 85.6832C446.193 87.7561 450.412 90.7447 453.755 94.6491C457.097 98.5559 459.624 103.256 461.335 108.756C463.047 114.255 463.903 120.471 463.903 127.405V203.436H452.287V127.405C452.287 116.246 449.678 107.5 444.462 101.164C439.244 94.8284 431.257 91.6605 420.497 91.6605C412.506 91.6605 405.091 93.6736 398.244 97.6975C391.397 101.724 385.284 107.242 379.904 114.255V203.436H368.288Z" fill="#444444"/>
<path fill-rule="evenodd" clip-rule="evenodd" d="M537.149 82.575C544.07 82.575 550.474 83.7276 556.366 86.0354C562.256 88.3431 567.365 91.7034 571.691 96.1184C576.016 100.533 579.392 105.963 581.825 112.406C584.254 118.85 585.47 126.248 585.47 134.601C585.47 136.35 585.203 137.543 584.667 138.181C584.131 138.818 583.288 139.135 582.138 139.135H493.4V141.402C493.4 150.311 494.471 158.149 496.614 164.91C498.754 171.671 501.804 177.338 505.759 181.913C509.713 186.488 514.491 189.927 520.094 192.235C525.695 194.543 531.959 195.696 538.879 195.696C545.058 195.696 550.415 195.039 554.945 193.727C559.476 192.414 563.287 190.942 566.377 189.312C569.466 187.682 571.918 186.209 573.73 184.897C575.542 183.584 576.861 182.928 577.685 182.928C578.755 182.928 579.58 183.326 580.156 184.121L583.369 187.939C581.392 190.326 578.777 192.555 575.522 194.622C572.267 196.691 568.641 198.461 564.646 199.932C560.65 201.404 556.366 202.576 551.794 203.452C547.221 204.325 542.629 204.764 538.014 204.764C529.61 204.764 521.948 203.351 515.028 200.528C508.107 197.705 502.167 193.588 497.212 188.178C492.254 182.768 488.422 176.145 485.718 168.31C483.012 160.475 481.66 151.505 481.66 141.402C481.66 132.892 482.916 125.036 485.429 117.836C487.943 110.636 491.566 104.431 496.305 99.2209C501.04 94.0111 506.849 89.9349 513.73 86.99C520.606 84.0474 528.414 82.575 537.149 82.575ZM537.931 90.5438C531.518 90.5438 525.77 91.4758 520.69 93.3399C515.607 95.204 511.215 97.8836 507.509 101.379C503.803 104.874 500.805 109.068 498.513 113.961C496.221 118.854 494.704 124.33 493.953 130.388H575.909C575.909 124.174 574.99 118.603 573.159 113.67C571.324 108.739 568.744 104.564 565.413 101.146C562.083 97.7298 558.084 95.1084 553.419 93.2817C548.757 91.4572 543.595 90.5438 537.931 90.5438Z" fill="#444444"/>
<path fill-rule="evenodd" clip-rule="evenodd" d="M653.146 82.575C662.061 82.575 670.041 84.0259 677.083 86.9303C684.123 89.8347 690.06 93.9514 694.895 99.2805C699.727 104.61 703.415 111.034 705.957 118.552C708.5 126.069 709.77 134.482 709.77 143.789C709.77 153.096 708.497 161.49 705.957 168.967C703.415 176.446 699.727 182.849 694.895 188.178C690.06 193.507 684.123 197.605 677.083 200.469C670.041 203.332 662.061 204.764 653.146 204.764C644.229 204.764 636.252 203.332 629.209 200.469C622.167 197.605 616.21 193.507 611.335 188.178C606.46 182.849 602.75 176.444 600.21 168.967C597.668 161.49 596.398 153.096 596.398 143.789C596.398 134.482 597.668 126.069 600.21 118.552C602.753 111.034 606.46 104.612 611.335 99.2805C616.21 93.9514 622.167 89.8347 629.209 86.9303C636.252 84.0283 644.229 82.575 653.146 82.575ZM652.462 196.795C659.758 196.795 666.13 195.576 671.581 193.134C677.031 190.692 681.58 187.191 685.229 182.63C688.876 178.068 691.6 172.567 693.405 166.123C695.205 159.681 696.11 152.459 696.11 144.454C696.11 136.53 695.208 129.327 693.405 122.845C691.6 116.362 688.876 110.821 685.229 106.218C681.582 101.618 677.033 98.0761 671.581 95.5935C666.13 93.1133 659.756 91.872 652.462 91.872C645.169 91.872 638.792 93.1133 633.343 95.5935C627.891 98.0761 623.342 101.618 619.695 106.218C616.046 110.821 613.302 116.362 611.458 122.845C609.613 129.327 608.691 136.53 608.691 144.454C608.691 152.456 609.613 159.681 611.458 166.123C613.302 172.567 616.046 178.068 619.695 182.63C623.342 187.191 627.891 190.692 633.343 193.134C638.792 195.576 645.166 196.795 652.462 196.795Z" fill="#444444"/>
<path fill-rule="evenodd" clip-rule="evenodd" d="M782.942 200.78H755.555L705.672 78.5903H730.736C732.936 78.5903 734.79 79.1072 736.299 80.1385C737.805 81.1723 738.847 82.4799 739.416 84.0686L763.624 149.332C765.008 153.142 766.172 156.875 767.109 160.526C768.045 164.18 768.882 167.831 769.615 171.483C770.349 167.831 771.183 164.18 772.122 160.526C773.058 156.875 774.261 153.142 775.728 149.332L800.548 84.0686C801.117 82.4799 802.137 81.1723 803.604 80.1385C805.071 79.1072 806.822 78.5903 808.862 78.5903H832.703L782.942 200.78Z" fill="#444444"/>
<path d="M870.949 79.9185H839.533V202.108H870.949V79.9185Z" fill="#444444"/>
<path fill-rule="evenodd" clip-rule="evenodd" d="M891.438 202.108V79.1793H910.047C913.99 79.1793 916.575 80.9765 917.808 84.5709L919.779 93.6767C921.997 91.2804 924.319 89.0831 926.741 87.087C929.164 85.0909 931.752 83.3728 934.504 81.935C937.255 80.4972 940.212 79.359 943.376 78.5203C946.538 77.6816 950.008 77.2623 953.791 77.2623C961.756 77.2623 968.31 79.359 973.445 83.5525C978.579 87.7459 982.421 93.3173 984.967 100.266C986.938 96.1928 989.403 92.699 992.36 89.7828C995.318 86.8689 998.563 84.4918 1002.09 82.6539C1005.63 80.8183 1009.38 79.4596 1013.37 78.5802C1017.35 77.7008 1021.36 77.2623 1025.38 77.2623C1032.37 77.2623 1038.57 78.3022 1043.99 80.3774C1049.41 82.455 1053.97 85.4887 1057.67 89.4832C1061.37 93.4778 1064.18 98.3494 1066.11 104.1C1068.04 109.852 1069.01 116.441 1069.01 123.87V202.108H1038.57V123.87C1038.57 116.041 1036.8 110.151 1033.27 106.197C1029.74 102.243 1024.56 100.266 1017.74 100.266C1014.62 100.266 1011.73 100.786 1009.06 101.824C1006.39 102.864 1004.05 104.362 1002.03 106.317C1000.02 108.275 998.44 110.731 997.289 113.686C996.138 116.64 995.564 120.036 995.564 123.87V202.108H965.007V123.87C965.007 115.643 963.302 109.653 959.893 105.898C956.483 102.145 951.453 100.266 944.798 100.266C940.441 100.266 936.358 101.326 932.538 103.442C928.715 105.557 925.164 108.455 921.879 112.128V202.108H891.438Z" fill="#444444"/>
<path d="M870.949 38.746H839.533V63.9807H870.949V38.746Z" fill="#444444"/>
<path d="M641.939 388.275L659.26 358.275L624.619 358.275L641.939 388.275ZM638.939 336L638.939 361.275L644.939 361.275L644.939 336L638.939 336Z" fill="#444444"/>
<path d="M641.939 884.275L659.26 854.275L624.619 854.275L641.939 884.275ZM638.939 832L638.939 857.275L644.939 857.275L644.939 832L638.939 832Z" fill="#444444"/>
<path fill-rule="evenodd" clip-rule="evenodd" d="M87.1365 957L7.41527e-06 1044.16L0 1167.93L87.1365 1255.09V957Z" fill="url(#paint6_linear)"/>
<path d="M298.703 1167.93L211.576 1255.08V957.009L298.703 1044.16L298.703 1167.93Z" fill="url(#paint7_linear)"/>
<path d="M211.576 1255.1L0.356445 1043.81L87.1366 957.005L298.356 1168.29L211.576 1255.1Z" fill="url(#paint8_linear)"/>
<path d="M388.873 1047.08H407.293V1064.77C413.024 1057.4 419.983 1052 428.17 1048.56C436.52 1045.12 445.362 1043.4 454.695 1043.4C470.25 1043.4 481.793 1047.49 489.325 1055.68C497.021 1063.87 500.869 1074.85 500.869 1088.6V1165.01H481.957V1090.32C481.957 1080.17 479.501 1072.39 474.589 1066.98C469.677 1061.42 461.818 1058.63 451.011 1058.63C432.836 1058.63 418.427 1066.82 407.785 1083.2V1165.01H388.873V1047.08Z" fill="#334444"/>
<path d="M585.067 1168.7C563.617 1168.7 546.834 1163.21 534.718 1152.24C522.765 1141.26 516.789 1125.95 516.789 1106.29C516.789 1086.97 522.192 1071.65 532.999 1060.35C543.805 1049.05 559.196 1043.4 579.172 1043.4C592.599 1043.4 603.978 1046.02 613.311 1051.26C622.644 1056.34 629.685 1063.38 634.433 1072.39C639.182 1081.4 641.556 1091.63 641.556 1103.1V1113.42H534.472C535.127 1126.85 540.039 1136.92 549.209 1143.64C558.541 1150.35 571.149 1153.71 587.032 1153.71C594.727 1153.71 602.259 1153.05 609.627 1151.74C617.159 1150.27 623.872 1148.3 629.767 1145.85V1161.82C624.855 1163.78 618.141 1165.42 609.627 1166.73C601.277 1168.04 593.09 1168.7 585.067 1168.7ZM623.872 1099.91C623.545 1087.13 619.615 1077.06 612.083 1069.69C604.551 1062.32 593.499 1058.63 578.927 1058.63C564.682 1058.63 553.793 1062.48 546.261 1070.18C538.729 1077.71 534.8 1087.62 534.472 1099.91H623.872Z" fill="#334444"/>
<path d="M719.265 1168.7C706.493 1168.7 695.113 1166.16 685.126 1161.08C675.301 1156 667.606 1148.8 662.039 1139.46C656.635 1129.96 653.934 1118.9 653.934 1106.29C653.934 1093.85 656.717 1082.87 662.284 1073.37C667.851 1063.87 675.547 1056.5 685.371 1051.26C695.359 1046.02 706.657 1043.4 719.265 1043.4C731.872 1043.4 743.088 1046.02 752.912 1051.26C762.9 1056.5 770.678 1063.87 776.245 1073.37C781.812 1082.87 784.595 1093.85 784.595 1106.29C784.595 1118.9 781.812 1129.96 776.245 1139.46C770.841 1148.8 763.146 1156 753.158 1161.08C743.334 1166.16 732.036 1168.7 719.265 1168.7ZM719.265 1153.71C733.346 1153.71 744.562 1149.45 752.912 1140.93C761.427 1132.25 765.684 1120.71 765.684 1106.29C765.684 1091.72 761.427 1080.17 752.912 1071.65C744.562 1062.97 733.346 1058.63 719.265 1058.63C705.183 1058.63 693.885 1062.97 685.371 1071.65C677.021 1080.17 672.845 1091.72 672.845 1106.29C672.845 1120.71 677.021 1132.25 685.371 1140.93C693.885 1149.45 705.183 1153.71 719.265 1153.71Z" fill="#334444"/>
<path d="M794.379 1047.08H825.571L857.499 1128.65L889.428 1047.08H920.62L871.99 1165.01H843.009L794.379 1047.08Z" fill="#334444"/>
<path d="M950.276 1026.45C945.364 1026.45 941.189 1024.81 937.751 1021.53C934.476 1018.26 932.839 1014.16 932.839 1009.25C932.839 1004.34 934.476 1000.24 937.751 996.965C941.189 993.525 945.364 991.806 950.276 991.806C955.189 991.806 959.364 993.525 962.802 996.965C966.241 1000.24 967.96 1004.34 967.96 1009.25C967.96 1014.16 966.241 1018.26 962.802 1021.53C959.364 1024.81 955.189 1026.45 950.276 1026.45ZM934.558 1047.08H965.995V1165.01H934.558V1047.08Z" fill="#334444"/>
<path d="M985.077 1047.08H1014.06V1062.56C1019.3 1056.34 1025.44 1051.59 1032.48 1048.31C1039.52 1045.04 1046.64 1043.4 1053.85 1043.4C1063.02 1043.4 1070.38 1044.95 1075.95 1048.07C1081.52 1051.01 1085.69 1055.52 1088.48 1061.58C1093.72 1055.68 1100.02 1051.18 1107.39 1048.07C1114.92 1044.95 1122.37 1043.4 1129.74 1043.4C1144.47 1043.4 1155.04 1047.08 1161.42 1054.45C1167.81 1061.82 1171 1072.63 1171 1086.88V1165.01H1141.28V1091.06C1141.28 1082.71 1139.56 1076.73 1136.12 1073.13C1132.85 1069.52 1127.53 1067.72 1120.16 1067.72C1114.92 1067.72 1110.09 1068.79 1105.67 1070.92C1101.41 1072.88 1097.48 1076.32 1093.88 1081.23C1094.21 1086.47 1094.37 1090.73 1094.37 1094.01V1165.01H1064.41V1090.57C1064.41 1082.05 1063.02 1076.16 1060.23 1072.88C1057.45 1069.44 1052.37 1067.72 1045 1067.72C1033.87 1067.72 1023.88 1074.03 1015.04 1086.64V1165.01H985.077V1047.08Z" fill="#334444"/>
</g>
<defs>
<linearGradient id="paint0_linear" x1="102.516" y1="552.676" x2="206.244" y2="721.514" gradientUnits="userSpaceOnUse">
<stop stop-color="#0F5CB4"/>
<stop offset="1" stop-color="#70E002"/>
</linearGradient>
<linearGradient id="paint1_linear" x1="65.123" y1="497" x2="65.123" y2="783.06" gradientUnits="userSpaceOnUse">
<stop stop-color="#16B0ED"/>
<stop offset="1" stop-color="#0F59B2"/>
</linearGradient>
<linearGradient id="paint2_linear" x1="242.498" y1="497" x2="242.498" y2="783.059" gradientUnits="userSpaceOnUse">
<stop stop-color="#73E202"/>
<stop offset="1" stop-color="#079400"/>
</linearGradient>
<linearGradient id="paint3_linear" x1="90.4937" y1="0" x2="90.4937" y2="281.794" gradientUnits="userSpaceOnUse">
<stop stop-color="#16B0ED" stop-opacity="0.800236"/>
<stop offset="1" stop-color="#0F59B2" stop-opacity="0.837"/>
</linearGradient>
<linearGradient id="paint4_linear" x1="267.087" y1="0.0328369" x2="267.087" y2="281.794" gradientUnits="userSpaceOnUse">
<stop stop-color="#7DB643"/>
<stop offset="1" stop-color="#367533"/>
</linearGradient>
<linearGradient id="paint5_linear" x1="179.073" y1="0.0481567" x2="179.073" y2="281.869" gradientUnits="userSpaceOnUse">
<stop stop-color="#88C649" stop-opacity="0.8"/>
<stop offset="1" stop-color="#439240" stop-opacity="0.84"/>
</linearGradient>
<linearGradient id="paint6_linear" x1="43.5683" y1="957" x2="43.5683" y2="1255.09" gradientUnits="userSpaceOnUse">
<stop stop-color="#16B0ED"/>
<stop offset="1" stop-color="#0F59B2"/>
</linearGradient>
<linearGradient id="paint7_linear" x1="255.14" y1="957.009" x2="255.14" y2="1255.08" gradientUnits="userSpaceOnUse">
<stop stop-color="#16B0ED"/>
<stop offset="1" stop-color="#0F59B2"/>
</linearGradient>
<linearGradient id="paint8_linear" x1="149.356" y1="1255.1" x2="149.356" y2="957.005" gradientUnits="userSpaceOnUse">
<stop stop-color="#73E202"/>
<stop offset="1" stop-color="#079400"/>
</linearGradient>
<clipPath id="clip0">
<rect width="1171" height="1255" fill="white"/>
</clipPath>
</defs>
</svg>
