<svg width="650" height="132" viewBox="0 0 650 132" fill="none" xmlns="http://www.w3.org/2000/svg">
<path d="M630.971 43.7867V73.1259C630.971 78.0272 631.293 81.2795 631.937 82.8827C632.58 84.4401 633.913 85.2188 635.935 85.2188C638.969 85.2188 641.405 83.3408 643.243 79.5846L650 81.852C646.507 90.5553 639.038 94.9069 627.593 94.9069C621.296 94.9069 616.562 93.3953 613.39 90.3721C610.219 87.303 608.633 82.7224 608.633 76.6301V43.7867H600.429V36.366L602.152 36.4347C607.714 36.4347 612.471 34.6711 616.424 31.144C620.377 27.6169 622.767 23.1279 623.594 17.6769H630.971V36.366H647.932V43.7867H630.971Z" fill="black"/>
<path d="M577.608 49.0728C577.424 50.2179 577.263 51.4776 577.126 52.8518C576.988 54.226 576.873 55.8063 576.781 57.5928C576.689 59.3793 576.62 61.4406 576.574 63.7767C576.528 66.1129 576.505 68.8154 576.505 71.8845C576.505 75.9155 576.965 78.9616 577.884 81.0229C578.803 83.0384 580.504 84.0462 582.986 84.0462C586.019 84.0462 588.455 82.1681 590.294 78.4119L597.051 80.6794C593.557 89.3827 586.088 93.7343 574.644 93.7343C571.012 93.7343 567.956 93.2075 565.474 92.154C563.038 91.1004 561.061 89.6117 559.545 87.6878C558.074 85.7639 557.017 83.4736 556.373 80.8168C555.73 78.1142 555.408 75.1597 555.408 71.9532C555.408 68.5177 555.431 65.5403 555.477 63.0209C555.569 60.4557 555.684 58.2341 555.822 56.356C555.96 54.4321 556.12 52.7831 556.304 51.4089C556.488 50.0347 556.672 48.7979 556.856 47.6986H542.033C541.757 53.0121 541.596 57.7073 541.55 61.7841C541.504 65.8151 541.435 69.3651 541.343 72.4342C541.297 75.5032 541.159 78.1829 540.93 80.4732C540.7 82.7178 540.24 84.7104 539.551 86.451C539.045 87.6878 538.471 88.7872 537.827 89.7491C537.184 90.6652 536.356 91.421 535.345 92.0165C534.38 92.612 533.162 93.0472 531.691 93.322C530.266 93.6427 528.497 93.803 526.382 93.803C524.176 93.803 522.384 93.1846 521.005 91.9478C519.672 90.7569 519.005 89.3139 519.005 87.6191C519.005 85.9242 519.258 84.4813 519.764 83.2904C520.315 82.0536 520.982 80.7939 521.763 79.5113C522.59 78.2287 523.464 76.8087 524.383 75.2513C525.348 73.6939 526.221 71.7242 527.003 69.3422C527.83 66.9145 528.497 63.9828 529.002 60.5473C529.554 57.066 529.83 52.7831 529.83 47.6986H529.14C526.934 47.7902 525.21 48.4086 523.969 49.5537C522.774 50.6989 521.648 52.4166 520.591 54.707H512.525C513.352 52.2334 514.294 49.9889 515.351 47.9734C516.454 45.9121 517.649 44.0798 518.936 42.4766C520.269 40.7817 521.487 39.4534 522.59 38.4914C523.739 37.5295 524.958 36.8195 526.244 36.3614C527.577 35.8575 529.094 35.5369 530.795 35.3995C532.541 35.262 534.702 35.1933 537.276 35.1933H593.465C592.408 37.8501 591.466 40.0946 590.639 41.9269C589.811 43.7134 589.076 45.1792 588.432 46.3244C587.789 47.4237 587.214 48.2253 586.709 48.7292C586.249 49.2331 585.836 49.5079 585.468 49.5537L577.608 49.0728Z" fill="black"/>
<path fill-rule="evenodd" clip-rule="evenodd" d="M630.145 115.18L626.565 111.612L622.986 115.18L626.565 118.748L630.145 115.18ZM626.565 98.5027L609.831 115.18L626.565 131.857L643.299 115.18L626.565 98.5027Z" fill="black"/>
<path fill-rule="evenodd" clip-rule="evenodd" d="M501.6 82.1811C500.539 80.8375 500.009 78.4589 500.009 75.0451V32.9259L467.191 38.1478V45.4311H468.777C471.371 45.4311 473.332 45.7413 474.661 46.3618C475.309 46.6647 475.807 47.0416 476.154 47.4924C477.211 48.8208 477.74 51.1798 477.74 54.5695V75.0451C477.74 78.389 477.211 80.748 476.154 82.1223C476.139 82.142 476.125 82.1616 476.109 82.1811C475.072 83.5161 472.628 84.1835 468.777 84.1835H467.191V91.4668H509.385V84.1835C505.34 84.1835 502.767 83.5423 501.663 82.2597C501.642 82.2339 501.621 82.2077 501.6 82.1811ZM491.531 82.1811C490.862 79.6527 490.723 77.1174 490.723 75.0451V43.8059L485.229 44.6802C486.76 48.0304 487.025 51.7227 487.025 54.5695V75.0451C487.025 77.1631 486.872 79.6823 486.2 82.1811H491.531Z" fill="black"/>
<path fill-rule="evenodd" clip-rule="evenodd" d="M485.847 11.705C484.897 12.6604 484.585 13.4884 484.585 14.6581C484.585 15.8838 484.912 16.6876 485.823 17.5869C486.782 18.5344 487.628 18.8579 488.831 18.8579C490.033 18.8579 490.879 18.5344 491.839 17.5869C492.75 16.6876 493.076 15.8838 493.076 14.6581C493.076 13.4884 492.764 12.6604 491.814 11.705C490.911 10.7963 490.09 10.4583 488.831 10.4583C487.572 10.4583 486.75 10.7963 485.847 11.705ZM479.261 5.15866C476.62 7.81603 475.299 10.9825 475.299 14.6581C475.299 18.3834 476.632 21.5623 479.299 24.1948C481.965 26.8273 485.142 28.1436 488.831 28.1436C492.519 28.1436 495.696 26.8273 498.363 24.1948C501.029 21.5623 502.362 18.3834 502.362 14.6581C502.362 10.9825 501.041 7.81603 498.4 5.15866C495.758 2.50128 492.569 1.17262 488.831 1.17262C485.093 1.17262 481.903 2.50128 479.261 5.15866Z" fill="black"/>
<path d="M385.363 74.1519L392.396 77.2438C390.465 82.5116 386.949 86.5884 381.847 89.4742C376.791 92.3142 370.885 93.7342 364.128 93.7342C354.89 93.7342 347.053 91.1691 340.618 86.0387C334.229 80.8626 331.035 73.7396 331.035 64.6699C331.035 55.1421 334.528 47.4695 341.515 41.652C348.501 35.8346 357.556 32.9259 368.679 32.9259C375.573 32.9259 381.02 34.1855 385.019 36.7049C389.063 39.2243 391.086 42.5453 391.086 46.6679C391.086 49.004 390.281 51.0653 388.673 52.8518C387.11 54.5924 385.065 55.4628 382.537 55.4628C377.527 55.4628 374.332 52.2105 372.953 45.7059C372.54 43.782 371.919 42.4078 371.092 41.5833C370.264 40.7588 368.84 40.3465 366.817 40.3465C362.727 40.3465 359.647 41.9727 357.579 45.225C355.556 48.4314 354.545 53.264 354.545 59.7228C354.545 68.5635 355.763 74.9306 358.199 78.8242C360.681 82.6719 364.542 84.5958 369.782 84.5958C376.952 84.5958 382.146 81.1145 385.363 74.1519Z" fill="black"/>
<path d="M402.668 91.4668L414.803 51.8211C415.63 49.1643 416.044 47.2634 416.044 46.1182C416.044 44.6982 415.331 43.9882 413.906 43.9882C410.643 43.9882 407.265 47.1259 403.772 53.4015H397.36C401.129 46.5763 405.564 41.4688 410.666 38.0791C415.768 34.6894 420.732 32.9946 425.558 32.9946C428.408 32.9946 430.591 33.8878 432.108 35.6743C433.67 37.4607 434.452 39.7511 434.452 42.5453C434.452 45.5685 433.165 51.7524 430.591 61.097C440.933 42.362 449.987 32.9946 457.755 32.9946C460.053 32.9946 461.984 33.7504 463.546 35.262C465.109 36.7278 465.891 38.7891 465.891 41.4459C465.891 44.6524 464.971 47.5382 463.133 50.1034C461.294 52.6227 459.019 53.8824 456.307 53.8824C453.963 53.8824 452.171 52.8976 450.93 50.9279C449.964 49.5079 449.022 48.7979 448.103 48.7979C444.931 48.7979 440.611 53.7908 435.141 63.7767C429.672 73.7625 425.788 82.9926 423.49 91.4668H402.668Z" fill="black"/>
<path d="M380.326 127.819L363.829 115.164L346.222 127.819H339.984L353.709 103.193H374.296L387.05 127.819H380.326Z" fill="black"/>
<path d="M380.11 0L363.701 12.7114L346.189 0H339.984L353.635 24.7356H374.111L386.797 0H380.11Z" fill="black"/>
<path fill-rule="evenodd" clip-rule="evenodd" d="M297.872 73.7171C289.916 55.604 285.939 42.4806 285.939 34.3468C285.939 26.6231 288.888 19.9418 294.786 14.3028C298.396 10.8512 303.381 8.3663 309.741 6.84816C311.16 6.50947 312.647 6.2189 314.203 5.97644C317.066 5.53017 320.162 5.2469 323.489 5.12664V12.3035C319.267 12.9251 315.783 14.0316 313.038 15.6231C307.934 18.5818 305.382 23.2168 305.382 29.528C305.382 33.9025 307.406 40.8059 311.452 50.2385C316.733 62.5418 320.077 70.9489 321.483 75.4601C322.888 79.9713 323.591 84.4483 323.591 88.8911C323.591 97.3667 320.385 104.407 313.972 110.012C310.393 113.14 305.91 115.449 300.525 116.938C298.877 117.393 297.144 117.772 295.327 118.074C292.445 118.553 289.349 118.839 286.041 118.931V111.755C290.298 111.383 293.904 110.231 296.86 108.297C297.715 107.738 298.515 107.113 299.261 106.423C302.587 103.347 304.251 99.3831 304.251 94.5301C304.251 90.3606 302.125 83.4231 297.872 73.7171ZM313.536 94.5382C313.536 94.5355 313.536 94.5328 313.536 94.5301C313.536 91.0854 312.699 87.2801 311.534 83.479C310.331 79.5518 308.588 75.0371 306.378 69.9909L306.374 69.9829C298.399 51.8255 295.224 40.3209 295.224 34.3468C295.224 32.3519 295.507 30.4719 296.108 28.6801C295.875 37.366 299.562 46.0755 302.918 53.8993L302.919 53.9011C308.224 66.2594 311.376 74.2399 312.617 78.223C313.762 81.8967 314.306 85.443 314.306 88.8911C314.306 90.9229 314.054 92.796 313.536 94.5382Z" fill="black"/>
<path d="M252.875 85.489C249.519 87.9168 246.003 89.7491 242.326 90.9858C238.695 92.1768 234.88 92.7723 230.881 92.7723C225.596 92.7723 221.62 91.5813 218.954 89.1994C216.334 86.8174 215.024 83.8629 215.024 80.3358C215.024 75.3429 217.667 70.9225 222.953 67.0747C228.239 63.227 237.799 58.967 251.634 54.2947V49.2101C251.634 45.5914 250.76 43.2782 249.014 42.2704C247.267 41.2169 245.199 40.6901 242.809 40.6901C237.017 40.6901 233.8 42.7972 233.157 47.0114C232.697 49.8972 231.778 52.0043 230.399 53.3327C229.02 54.6153 226.883 55.2566 223.987 55.2566C221.367 55.2566 219.276 54.5695 217.713 53.1953C216.196 51.7753 215.438 50.1263 215.438 48.2482C215.438 43.9882 218.265 40.3694 223.918 37.392C229.571 34.4146 237.132 32.9259 246.601 32.9259C251.886 32.9259 256.299 33.2465 259.838 33.8878C263.423 34.5291 266.296 35.7201 268.456 37.4607C270.662 39.2014 272.11 41.0336 272.8 42.9575C273.535 44.8814 273.903 47.4924 273.903 50.7905V76.9003C273.903 80.8397 275.098 82.8093 277.488 82.8093C279.556 82.8093 280.866 81.5268 281.418 78.9616H287.14C287.002 83.6797 285.256 87.161 281.9 89.4055C278.591 91.65 274.615 92.7723 269.973 92.7723C261.516 92.7723 255.816 90.3445 252.875 85.489ZM251.634 78.0684V61.9902C245.245 64.647 241.062 67.0518 239.086 69.2048C237.155 71.3577 236.19 73.5793 236.19 75.8696C236.19 77.6103 236.765 79.1906 237.914 80.6106C239.063 81.9848 240.58 82.6719 242.464 82.6719C244.119 82.6719 245.704 82.2826 247.221 81.5038C248.738 80.7251 250.209 79.58 251.634 78.0684ZM234.88 23.5813L244.808 1.52536H272.8L240.878 23.5813H234.88Z" fill="black"/>
<path d="M177.025 42.5826V71.9845C177.025 76.8963 176.696 80.1555 176.04 81.7621C175.383 83.3229 174.022 84.1033 171.958 84.1033C168.862 84.1033 166.376 82.2212 164.499 78.457L157.603 80.7293C161.168 89.4511 168.792 93.8121 180.473 93.8121C186.9 93.8121 191.732 92.2972 194.969 89.2675C198.206 86.1919 199.825 81.6015 199.825 75.4962V42.5826H208.199V35.1461L206.44 35.215C200.763 35.215 195.908 33.4476 191.873 29.913C187.838 26.3784 185.399 21.8797 184.554 16.4171H177.025V35.1461H159.714V42.5826H177.025Z" fill="black"/>
<path fill-rule="evenodd" clip-rule="evenodd" d="M169.672 115.63C169.672 112.24 170.89 109.32 173.326 106.869C175.763 104.419 178.704 103.193 182.151 103.193C185.599 103.193 188.54 104.419 190.976 106.869C193.412 109.32 194.63 112.24 194.63 115.63C194.63 119.065 193.401 121.997 190.942 124.425C188.483 126.852 185.553 128.066 182.151 128.066C178.75 128.066 175.82 126.852 173.361 124.425C170.902 121.997 169.672 119.065 169.672 115.63Z" fill="black"/>
<path fill-rule="evenodd" clip-rule="evenodd" d="M109.982 37.6889C110.16 37.8732 110.333 38.0625 110.5 38.257C110.961 38.7939 111.377 39.3698 111.75 39.9846C112.634 39.3449 113.529 38.7466 114.436 38.1895C115.49 37.5416 116.56 36.9495 117.644 36.4135C119.122 35.6834 120.627 35.057 122.16 34.5345C123.058 34.2287 123.971 33.9717 124.893 33.7458C127.736 33.0495 130.686 32.7014 133.743 32.7014C139.029 32.7014 143.005 33.8923 145.671 36.2743C148.29 38.6562 149.6 41.6108 149.6 45.1379C149.6 50.1308 146.958 54.5512 141.672 58.3989C140.445 59.2921 138.987 60.2076 137.3 61.1452C135.238 62.2905 132.833 63.469 130.084 64.6806C129.437 64.9656 128.772 65.2525 128.087 65.5412C127.864 65.6353 127.639 65.7296 127.411 65.824C123.995 67.2448 120.122 68.7096 115.792 70.2184C114.878 70.5367 113.945 70.8568 112.991 71.179V76.2635C112.991 79.8823 113.864 82.1955 115.611 83.2032C116.356 83.6531 117.161 84.0068 118.024 84.2646C119.182 84.6106 120.446 84.7836 121.816 84.7836C125.552 84.7836 128.217 83.9064 129.811 82.1521C130.687 81.1874 131.24 79.9575 131.468 78.4622C131.796 76.4025 132.358 74.7395 133.155 73.4731C133.474 72.9652 133.831 72.5212 134.226 72.1409C135.503 70.9529 137.431 70.315 140.01 70.2275C140.215 70.2205 140.424 70.217 140.638 70.217C143.258 70.217 145.349 70.9041 146.912 72.2783C148.428 73.6984 149.187 75.3474 149.187 77.2255C149.187 81.4855 146.36 85.1042 140.707 88.0817C138.749 89.1127 136.563 89.9652 134.148 90.6392C130.546 91.6444 126.435 92.2525 121.816 92.4636C120.588 92.5197 119.324 92.5478 118.024 92.5478C116.395 92.5478 114.849 92.5173 113.385 92.4564C110.101 92.3197 107.235 92.0295 104.786 91.5859C101.201 90.9446 98.3287 89.7536 96.1684 88.0129C93.9622 86.2723 92.5143 84.44 91.8249 82.5161C91.0895 80.5923 90.7218 77.9813 90.7218 74.6832L90.7218 48.5734C90.7218 48.4216 90.72 48.2727 90.7165 48.1268C90.6549 45.5929 90.0584 43.9406 88.9271 43.1698C88.4325 42.8328 87.8357 42.6643 87.1367 42.6643C85.0683 42.6643 83.7584 43.9469 83.2068 46.5121H77.4844C77.4965 46.0977 77.5211 45.6928 77.558 45.2975C77.875 41.9041 79.1065 39.2137 81.2525 37.2264C81.7028 36.8093 82.1934 36.4233 82.7242 36.0682C84.0827 35.1468 85.5535 34.4145 87.1367 33.8713C87.5898 33.7159 88.0522 33.5759 88.5237 33.4514C90.4179 32.9514 92.4605 32.7014 94.6516 32.7014C101.65 32.7014 106.76 34.3639 109.982 37.6889ZM99.1288 42.3386C102.143 42.8916 103.247 43.9702 103.705 44.6368L103.705 77.4015C103.741 77.3865 103.696 79.3012 104.334 81.9387C103.491 81.6682 102.652 81.3119 101.957 80.7525C101.413 80.3229 100.752 79.8783 100.499 79.2006C100.337 78.7788 100.008 77.4468 100.008 74.6832L100.008 48.5734C100.008 46.7829 99.8465 44.5669 99.1288 42.3386ZM122.277 58.8665C120.016 60.3102 116.921 61.8491 112.991 63.4835V47.4053C113.81 46.5359 114.645 45.7877 115.495 45.1607C116.123 44.6976 116.759 44.3006 117.403 43.9698C118.92 43.1911 120.506 42.8017 122.16 42.8017C123.184 42.8017 124.1 43.0046 124.906 43.4102C125.585 43.7512 126.186 44.2354 126.711 44.863C127.86 46.283 128.434 47.8634 128.434 49.604C128.434 51.8944 127.469 54.116 125.539 56.2689C125.401 56.4195 125.252 56.5713 125.092 56.7243C124.372 57.4134 123.434 58.1275 122.277 58.8665ZM137.72 49.6779C137.72 49.6533 137.72 49.6287 137.72 49.604C137.72 46.9067 137.088 44.3739 135.927 42.0922C138.264 42.3377 139.188 42.9458 139.462 43.1798C140.124 43.7922 140.315 44.2551 140.315 45.1379C140.315 46.0999 140.025 47.6136 137.72 49.6779Z" fill="black"/>
<path fill-rule="evenodd" clip-rule="evenodd" d="M87.1459 104.877L48.6749 10.0568H40.6083L0 104.877H87.1459ZM15.2276 96.5628C15.2276 96.5628 18.8448 87.5389 20.1318 84.3324L35.9201 43.9996L54.2594 88.6611C54.6271 89.5773 57.5871 96.5628 57.5871 96.5628H51.0879H22.7517H15.2276Z" fill="black"/>
</svg>
