<svg width="342" height="342" viewBox="0 0 342 342" fill="none" xmlns="http://www.w3.org/2000/svg">
<g filter="url(#filter0_d)">
<mask id="mask0" mask-type="alpha" maskUnits="userSpaceOnUse" x="43" y="43" width="256" height="256">
<rect x="43" y="43" width="256" height="256" rx="57" fill="#FFBF30"/>
</mask>
<g mask="url(#mask0)">
<rect x="43" y="43" width="256" height="256" fill="white"/>
<path d="M92.8896 210V148.34H115.287V132.495H50.8877V148.34H73.2314V210H92.8896ZM135.676 197.646C130.896 197.646 127.727 195.283 127.727 191.47C127.727 187.871 130.681 185.669 136.32 185.239L146.364 184.595V188.516C146.364 193.672 141.691 197.646 135.676 197.646ZM128.747 210.913C136.32 210.913 142.873 207.69 145.559 202.588H146.579V210H165.056V169.233C165.056 156.343 155.656 148.823 139.167 148.823C123 148.823 112.419 156.021 111.56 167.622H128.64C129.875 164.453 133.098 162.788 138.093 162.788C143.356 162.788 146.364 165.205 146.364 169.233V173.906L133.312 174.658C117.897 175.571 109.411 181.909 109.411 192.812C109.411 203.77 117.253 210.913 128.747 210.913ZM172.661 168.213C172.661 177.612 178.516 183.467 190.386 185.991L201.504 188.354C206.284 189.375 208.057 190.718 208.057 193.242C208.057 196.465 204.673 198.56 199.463 198.56C193.877 198.56 190.493 196.572 189.526 192.866H171.211C172.285 204.897 182.061 211.396 199.194 211.396C215.898 211.396 226.802 203.447 226.802 191.04C226.802 181.963 221.699 177.075 209.937 174.604L197.583 172.08C192.856 171.06 190.708 169.556 190.708 167.031C190.708 163.809 194.146 161.66 199.087 161.66C204.243 161.66 207.412 163.755 207.949 167.246H225.244C224.546 155.215 215.469 148.823 198.926 148.823C182.812 148.823 172.661 156.343 172.661 168.213ZM253.797 172.563H252.776V127.822H233.816V210H252.776V191.255L256.429 187.119L271.36 210H293.489L270.716 175.894L292.039 150.22H270.77L253.797 172.563Z" fill="black"/>
<path d="M14 180L310 180" stroke="black" stroke-width="17" stroke-linecap="round"/>
</g>
</g>
<defs>
<filter id="filter0_d" x="0" y="0" width="342" height="342" filterUnits="userSpaceOnUse" color-interpolation-filters="sRGB">
<feFlood flood-opacity="0" result="BackgroundImageFix"/>
<feColorMatrix in="SourceAlpha" type="matrix" values="0 0 0 0 0 0 0 0 0 0 0 0 0 0 0 0 0 0 127 0"/>
<feOffset/>
<feGaussianBlur stdDeviation="21.5"/>
<feColorMatrix type="matrix" values="0 0 0 0 0 0 0 0 0 0 0 0 0 0 0 0 0 0 0.25 0"/>
<feBlend mode="normal" in2="BackgroundImageFix" result="effect1_dropShadow"/>
<feBlend mode="normal" in="SourceGraphic" in2="effect1_dropShadow" result="shape"/>
</filter>
</defs>
</svg>
