<svg width="296" height="88" viewBox="0 0 296 88" fill="none" xmlns="http://www.w3.org/2000/svg">
<g clip-path="url(#clip0)">
<path d="M47.4692 36.864C43.5332 36.864 40.6772 34.416 40.6772 28.08C40.6772 21.768 43.4612 18.936 47.4932 18.936C49.6532 18.936 51.7172 19.68 53.7092 21.048L56.1812 17.664C53.7332 15.648 50.8772 14.616 47.3972 14.616C39.5732 14.616 34.9652 20.352 34.9652 28.08C34.9652 36.024 39.5012 41.28 47.3012 41.28C50.6612 41.28 53.9732 40.008 56.2052 38.112L53.7092 34.656C51.8612 35.952 49.8452 36.864 47.4692 36.864Z" fill="#002B36"/>
<path d="M72.0505 5.11196H59.0185V9.07196H66.6745V33.24C66.6745 38.208 69.6265 41.28 74.7385 41.28C77.5705 41.28 79.7545 40.608 81.2665 39.84L79.8985 36.096C78.6505 36.6 77.3305 36.936 75.8905 36.936C73.6105 36.936 72.0505 36.048 72.0505 33.72V5.11196Z" fill="#002B36"/>
<path d="M98.2877 2.87996C96.1997 2.87996 94.7837 4.34396 94.7837 6.23996C94.7837 8.18396 96.1997 9.64796 98.2877 9.64796C100.376 9.64796 101.816 8.18396 101.816 6.23996C101.816 4.34396 100.376 2.87996 98.2877 2.87996ZM102.488 15.288H87.1037V19.224H97.1117V35.664C97.1117 42.696 92.3117 45.408 84.7517 46.848L85.6157 50.976C96.4397 49.032 102.488 44.76 102.488 35.304V15.288Z" fill="#002B36"/>
<path d="M111.493 29.736H131.317V25.32H111.493V29.736Z" fill="#002B36"/>
<path d="M143.202 4.51196L137.826 5.11196V40.632H143.202V4.51196ZM159.978 15.288H153.714L143.586 26.76L154.482 40.632H161.058L149.73 26.616L159.978 15.288Z" fill="#002B36"/>
<path d="M176.591 14.616C169.223 14.616 165.119 20.064 165.119 27.96C165.119 36.144 169.175 41.28 176.567 41.28C183.911 41.28 188.015 35.952 188.015 27.912C188.015 19.848 184.007 14.616 176.591 14.616ZM176.591 18.792C180.455 18.792 182.375 21.672 182.375 27.912C182.375 34.248 180.455 37.128 176.567 37.128C172.679 37.128 170.759 34.248 170.759 27.96C170.759 21.672 172.727 18.792 176.591 18.792Z" fill="#002B36"/>
<path d="M195.221 40.632H200.597V22.44C201.965 20.52 204.053 18.72 206.525 18.72C209.597 18.72 210.149 20.424 210.149 24.816V40.632H215.525V22.152C215.525 17.4 213.173 14.616 208.445 14.616C205.397 14.616 202.373 16.008 200.261 18.576L199.853 15.288H195.221V40.632Z" fill="#002B36"/>
<path d="M238.882 4.51196V17.376C237.25 15.576 235.162 14.616 232.498 14.616C226.234 14.616 222.49 20.256 222.49 27.96C222.49 35.928 225.514 41.28 232.018 41.28C234.994 41.28 237.442 39.912 239.146 37.512L239.53 40.632H244.258V5.11196L238.882 4.51196ZM233.914 18.744C235.954 18.744 237.634 19.776 238.882 21.552V33.552C237.61 35.544 235.858 37.152 233.434 37.152C230.098 37.152 228.178 34.416 228.178 27.96C228.178 21.648 230.29 18.744 233.914 18.744Z" fill="#002B36"/>
<path d="M262.935 14.616C255.567 14.616 251.463 20.064 251.463 27.96C251.463 36.144 255.519 41.28 262.911 41.28C270.255 41.28 274.359 35.952 274.359 27.912C274.359 19.848 270.351 14.616 262.935 14.616ZM262.935 18.792C266.799 18.792 268.719 21.672 268.719 27.912C268.719 34.248 266.799 37.128 262.911 37.128C259.023 37.128 257.103 34.248 257.103 27.96C257.103 21.672 259.071 18.792 262.935 18.792Z" fill="#002B36"/>
<path d="M290.204 23.832C290.204 33.048 287.276 38.184 280.388 44.784L283.365 47.664C291.093 41.256 295.749 34.608 295.749 23.832C295.749 13.056 291.093 6.408 283.365 0L280.388 2.88C287.132 9.36 290.204 14.568 290.204 23.832Z" fill="#6C71C4"/>
<path d="M15.328 46.296H28.408V42.048H20.392V5.66404H28.408V1.36804H15.328V46.296Z" fill="#6C71C4"/>
<path d="M0 57.632L4 53.632L8 57.632L12 53.632L16 57.632L20 53.632L24 57.632L28 53.632L32 57.632L36 53.632L40 57.632L44 53.632" stroke="#B58900" stroke-width="2" stroke-linecap="round" stroke-linejoin="round"/>
<rect x="22" y="65.632" width="188" height="22" fill="#FFFDD9" stroke="#CCCAAE"/>
<path d="M34.91 79.078V76.252C34.91 74.92 34.082 74.128 32.384 74.128C31.736 74.128 30.956 74.26 30.164 74.56L30.494 75.508C31.142 75.286 31.76 75.178 32.18 75.178C33.074 75.178 33.59 75.508 33.59 76.33V76.744H32.684C30.752 76.744 29.672 77.494 29.672 78.826C29.672 80.002 30.47 80.794 31.754 80.794C32.564 80.794 33.314 80.5 33.776 79.912C34.004 80.464 34.466 80.716 35.09 80.788L35.39 79.876C35.054 79.768 34.91 79.576 34.91 79.078ZM32.162 79.804C31.448 79.804 31.082 79.444 31.082 78.766C31.082 78.028 31.58 77.584 32.846 77.584H33.59V78.982C33.266 79.504 32.702 79.804 32.162 79.804Z" fill="#002B36"/>
<path d="M47.2426 71.752H43.9846V72.742H45.8986V78.784C45.8986 80.026 46.6366 80.794 47.9146 80.794C48.6226 80.794 49.1686 80.626 49.5466 80.434L49.2046 79.498C48.8926 79.624 48.5626 79.708 48.2026 79.708C47.6326 79.708 47.2426 79.486 47.2426 78.904V71.752Z" fill="#002B36"/>
<path d="M54.1799 71.194C53.6639 71.194 53.3039 71.56 53.3039 72.034C53.3039 72.52 53.6639 72.886 54.1799 72.886C54.7079 72.886 55.0619 72.52 55.0619 72.034C55.0619 71.56 54.7079 71.194 54.1799 71.194ZM55.1159 74.296H51.9359V75.28H53.7719V79.648H51.8759V80.632H56.8379V79.648H55.1159V74.296Z" fill="#002B36"/>
<path d="M58.8492 80.632H60.1932V76.084C60.5352 75.604 61.0572 75.154 61.6752 75.154C62.4432 75.154 62.5812 75.58 62.5812 76.678V80.632H63.9252V76.012C63.9252 74.824 63.3372 74.128 62.1552 74.128C61.3932 74.128 60.6372 74.476 60.1092 75.118L60.0072 74.296H58.8492V80.632Z" fill="#002B36"/>
<path d="M71.3366 80.296L70.8506 79.408C70.5266 79.588 70.1366 79.708 69.6746 79.708C68.9006 79.708 68.5826 79.378 68.5826 78.7V75.274H70.5686L70.7186 74.296H68.5826V72.718L67.2386 72.88V74.296H65.8286V75.274H67.2386V78.712C67.2386 79.96 68.0126 80.794 69.4886 80.794C70.1906 80.794 70.8746 80.59 71.3366 80.296Z" fill="#002B36"/>
<path d="M74.3559 77.896H78.5559C78.5739 77.734 78.5859 77.512 78.5859 77.296C78.5859 75.328 77.5359 74.128 75.8559 74.128C74.0559 74.128 72.9639 75.568 72.9639 77.47C72.9639 79.438 74.0439 80.794 76.0179 80.794C76.9179 80.794 77.7399 80.482 78.3279 80.002L77.7459 79.198C77.2119 79.552 76.7019 79.75 76.0839 79.75C75.1659 79.75 74.4339 79.198 74.3559 77.896ZM75.8679 75.124C76.7619 75.124 77.2599 75.79 77.2839 76.978H74.3499C74.4339 75.712 75.0219 75.124 75.8679 75.124Z" fill="#002B36"/>
<path d="M80.4952 80.632H84.0472V79.672H82.7692V77.32C83.1472 76.078 83.8012 75.37 84.6952 75.34V76.63H85.6552L85.8832 74.296C85.5892 74.2 85.3072 74.134 84.9292 74.134C83.8312 74.134 83.1712 74.704 82.6972 75.766L82.4512 74.296H80.4952V75.25H81.4252V79.672H80.4952V80.632Z" fill="#002B36"/>
<path d="M100.118 80.296L99.6318 79.408C99.3078 79.588 98.9178 79.708 98.4558 79.708C97.6818 79.708 97.3638 79.378 97.3638 78.7V75.274H99.3498L99.4998 74.296H97.3638V72.718L96.0198 72.88V74.296H94.6098V75.274H96.0198V78.712C96.0198 79.96 96.7938 80.794 98.2698 80.794C98.9718 80.794 99.6558 80.59 100.118 80.296Z" fill="#002B36"/>
<path d="M103.365 71.62L102.021 71.764V80.632H103.365V76.102C103.707 75.61 104.241 75.154 104.841 75.154C105.483 75.154 105.753 75.46 105.753 76.222V80.632H107.097V76.012C107.097 74.824 106.521 74.128 105.327 74.128C104.595 74.128 103.875 74.446 103.365 75.07V71.62Z" fill="#002B36"/>
<path d="M114.058 79.078V76.252C114.058 74.92 113.23 74.128 111.532 74.128C110.884 74.128 110.104 74.26 109.312 74.56L109.642 75.508C110.29 75.286 110.908 75.178 111.328 75.178C112.222 75.178 112.738 75.508 112.738 76.33V76.744H111.832C109.9 76.744 108.82 77.494 108.82 78.826C108.82 80.002 109.618 80.794 110.902 80.794C111.712 80.794 112.462 80.5 112.924 79.912C113.152 80.464 113.614 80.716 114.238 80.788L114.538 79.876C114.202 79.768 114.058 79.576 114.058 79.078ZM111.31 79.804C110.596 79.804 110.23 79.444 110.23 78.766C110.23 78.028 110.728 77.584 111.994 77.584H112.738V78.982C112.414 79.504 111.85 79.804 111.31 79.804Z" fill="#002B36"/>
<path d="M121.704 80.296L121.218 79.408C120.894 79.588 120.504 79.708 120.042 79.708C119.268 79.708 118.95 79.378 118.95 78.7V75.274H120.936L121.086 74.296H118.95V72.718L117.606 72.88V74.296H116.196V75.274H117.606V78.712C117.606 79.96 118.38 80.794 119.856 80.794C120.558 80.794 121.242 80.59 121.704 80.296Z" fill="#002B36"/>
<path d="M133.106 79.762C132.362 79.762 131.708 79.486 131.216 79.084L130.502 79.9C131.084 80.41 131.93 80.794 133.106 80.794C134.564 80.794 135.902 80.194 135.902 78.826C135.902 77.62 135.092 77.194 133.856 76.852C132.59 76.498 132.242 76.324 132.242 75.85C132.242 75.424 132.584 75.148 133.442 75.148C134.18 75.148 134.756 75.382 135.248 75.706L135.812 74.86C135.248 74.446 134.468 74.128 133.406 74.128C131.846 74.128 130.874 74.86 130.874 75.946C130.874 77.056 131.702 77.5 132.956 77.818C134.27 78.16 134.48 78.406 134.48 78.916C134.48 79.444 133.946 79.762 133.106 79.762Z" fill="#002B36"/>
<path d="M141.088 74.128C140.386 74.128 139.732 74.458 139.252 75.112L139.168 74.296H137.998V83.218L139.342 83.068V80.092C139.75 80.56 140.284 80.794 140.95 80.794C142.558 80.794 143.392 79.39 143.392 77.452C143.392 75.436 142.762 74.128 141.088 74.128ZM140.716 75.166C141.562 75.166 141.982 75.832 141.982 77.458C141.982 79.048 141.502 79.744 140.596 79.744C140.068 79.744 139.648 79.492 139.342 79.036V76.072C139.66 75.586 140.116 75.166 140.716 75.166Z" fill="#002B36"/>
<path d="M150.035 79.078V76.252C150.035 74.92 149.207 74.128 147.509 74.128C146.861 74.128 146.081 74.26 145.289 74.56L145.619 75.508C146.267 75.286 146.885 75.178 147.305 75.178C148.199 75.178 148.715 75.508 148.715 76.33V76.744H147.809C145.877 76.744 144.797 77.494 144.797 78.826C144.797 80.002 145.595 80.794 146.879 80.794C147.689 80.794 148.439 80.5 148.901 79.912C149.129 80.464 149.591 80.716 150.215 80.788L150.515 79.876C150.179 79.768 150.035 79.576 150.035 79.078ZM147.287 79.804C146.573 79.804 146.207 79.444 146.207 78.766C146.207 78.028 146.705 77.584 147.971 77.584H148.715V78.982C148.391 79.504 147.827 79.804 147.287 79.804Z" fill="#002B36"/>
<path d="M152.448 80.632H156V79.672H154.722V77.32C155.1 76.078 155.754 75.37 156.648 75.34V76.63H157.608L157.836 74.296C157.542 74.2 157.26 74.134 156.882 74.134C155.784 74.134 155.124 74.704 154.65 75.766L154.404 74.296H152.448V75.25H153.378V79.672H152.448V80.632Z" fill="#002B36"/>
<path d="M160.97 71.602L159.626 71.752V80.632H160.97V71.602ZM165.164 74.296H163.598L161.066 77.164L163.79 80.632H165.434L162.602 77.128L165.164 74.296Z" fill="#002B36"/>
<path d="M169.083 79.762C168.339 79.762 167.685 79.486 167.193 79.084L166.479 79.9C167.061 80.41 167.907 80.794 169.083 80.794C170.541 80.794 171.879 80.194 171.879 78.826C171.879 77.62 171.069 77.194 169.833 76.852C168.567 76.498 168.219 76.324 168.219 75.85C168.219 75.424 168.561 75.148 169.419 75.148C170.157 75.148 170.733 75.382 171.225 75.706L171.789 74.86C171.225 74.446 170.445 74.128 169.383 74.128C167.823 74.128 166.851 74.86 166.851 75.946C166.851 77.056 167.679 77.5 168.933 77.818C170.247 78.16 170.457 78.406 170.457 78.916C170.457 79.444 169.923 79.762 169.083 79.762Z" fill="#002B36"/>
<path d="M184.518 71.194C183.996 71.194 183.642 71.56 183.642 72.034C183.642 72.52 183.996 72.886 184.518 72.886C185.04 72.886 185.4 72.52 185.4 72.034C185.4 71.56 185.04 71.194 184.518 71.194ZM185.568 74.296H181.722V75.28H184.224V79.39C184.224 81.148 183.024 81.826 181.134 82.186L181.35 83.218C184.056 82.732 185.568 81.664 185.568 79.3V74.296Z" fill="#002B36"/>
<path d="M190.903 74.128C189.061 74.128 188.035 75.49 188.035 77.464C188.035 79.51 189.049 80.794 190.897 80.794C192.733 80.794 193.759 79.462 193.759 77.452C193.759 75.436 192.757 74.128 190.903 74.128ZM190.903 75.172C191.869 75.172 192.349 75.892 192.349 77.452C192.349 79.036 191.869 79.756 190.897 79.756C189.925 79.756 189.445 79.036 189.445 77.464C189.445 75.892 189.937 75.172 190.903 75.172Z" fill="#002B36"/>
<path d="M201.104 74.296H199.724L198.104 79.696L196.508 74.296H195.08L197.216 80.632H197.672C197.33 81.55 196.928 82.018 195.644 82.216L195.818 83.224C197.594 83.074 198.434 82.096 198.92 80.656L201.104 74.296Z" fill="#002B36"/>
</g>
<defs>
<clipPath id="clip0">
<rect width="296" height="88" fill="white"/>
</clipPath>
</defs>
</svg>
