<svg width="1532" height="416" viewBox="0 0 1532 416" fill="none" xmlns="http://www.w3.org/2000/svg">
<g clip-path="url(#clip0)">
<g filter="url(#filter0_d)">
<rect x="40" y="40" width="336" height="336" rx="52" fill="white"/>
</g>
<path d="M732.263 322L632.933 209.736L718.812 108.595H659.835L586.63 195.768V108.595H538V322H586.63V231.465L665.267 322H732.263Z" fill="black"/>
<path d="M724.202 255.78C724.202 294.581 751.362 325.88 790.163 325.88C808.27 325.88 823.791 317.861 833.62 306.997H834.138V322H879.405V189.301H833.62V201.976C822.756 191.37 808.012 185.421 790.163 185.421C751.362 185.421 724.202 216.979 724.202 255.78ZM772.832 255.78C772.832 237.414 786.542 224.48 803.873 224.48C820.945 224.48 834.655 237.414 834.655 255.78C834.655 273.887 821.721 286.82 803.873 286.82C785.249 286.82 772.832 273.887 772.832 255.78Z" fill="black"/>
<path d="M900.776 255.78C900.776 296.65 932.852 325.88 980.706 325.88C1026.49 325.88 1059.86 296.65 1059.86 255.78C1059.86 214.392 1024.68 185.421 980.706 185.421C935.956 185.421 900.776 214.392 900.776 255.78ZM949.407 255.78C949.407 237.414 963.116 224.48 980.447 224.48C997.52 224.48 1011.23 237.414 1011.23 255.78C1011.23 273.887 998.296 286.82 980.447 286.82C961.823 286.82 949.407 273.887 949.407 255.78Z" fill="black"/>
<path d="M1151.98 222.928C1165.69 222.928 1174.23 229.136 1174.23 229.136L1189.75 197.837C1189.75 197.837 1174.74 185.421 1145.26 185.421C1106.71 185.421 1071.79 216.979 1071.79 256.038C1071.79 294.839 1106.97 325.88 1145.26 325.88C1174.74 325.88 1189.75 313.981 1189.75 313.981L1174.23 282.164C1174.23 282.164 1165.69 288.373 1151.98 288.373C1134.65 288.373 1120.42 273.887 1120.42 255.521C1120.42 237.414 1134.65 222.928 1151.98 222.928Z" fill="black"/>
<path d="M1208.43 322H1254.21V246.985C1254.21 233.793 1267.66 221.118 1281.37 221.118C1296.12 221.118 1305.17 233.793 1305.17 246.985V322H1350.96V234.569C1350.96 197.578 1317.07 185.421 1292.75 185.421C1278.27 185.421 1265.08 192.922 1254.73 203.269H1254.21V99.5415H1208.43V322Z" fill="black"/>
<path d="M1369.87 255.78C1369.87 294.581 1397.03 325.88 1435.83 325.88C1453.94 325.88 1469.46 317.861 1479.29 306.997H1479.81V322H1525.08V189.301H1479.29V201.976C1468.43 191.37 1453.68 185.421 1435.83 185.421C1397.03 185.421 1369.87 216.979 1369.87 255.78ZM1418.5 255.78C1418.5 237.414 1432.21 224.48 1449.54 224.48C1466.62 224.48 1480.33 237.414 1480.33 255.78C1480.33 273.887 1467.39 286.82 1449.54 286.82C1430.92 286.82 1418.5 273.887 1418.5 255.78Z" fill="black"/>
<path d="M1506.48 100H1467.1L1439.48 160H1478.26L1506.48 100Z" fill="black"/>
<path d="M781.992 91H741.479L781.992 160H824.967L865.479 91H824.967L803.797 130.778L781.992 91Z" fill="#18AF00"/>
<rect x="106" y="288.25" width="49" height="203" transform="rotate(-90 106 288.25)" fill="black"/>
<path d="M106 131.75L106 190.75L200 269.25L308.75 176L308.75 109L196.25 208L106 131.75Z" fill="#18AF00"/>
</g>
<defs>
<filter id="filter0_d" x="0" y="10" width="416" height="416" filterUnits="userSpaceOnUse" color-interpolation-filters="sRGB">
<feFlood flood-opacity="0" result="BackgroundImageFix"/>
<feColorMatrix in="SourceAlpha" type="matrix" values="0 0 0 0 0 0 0 0 0 0 0 0 0 0 0 0 0 0 127 0"/>
<feOffset dy="10"/>
<feGaussianBlur stdDeviation="20"/>
<feColorMatrix type="matrix" values="0 0 0 0 0 0 0 0 0 0 0 0 0 0 0 0 0 0 0.25 0"/>
<feBlend mode="normal" in2="BackgroundImageFix" result="effect1_dropShadow"/>
<feBlend mode="normal" in="SourceGraphic" in2="effect1_dropShadow" result="shape"/>
</filter>
<clipPath id="clip0">
<rect width="1532" height="416" fill="white"/>
</clipPath>
</defs>
</svg>
