<svg width="2708" height="1882" viewBox="0 0 2708 1882" fill="none" xmlns="http://www.w3.org/2000/svg">
<path fill-rule="evenodd" clip-rule="evenodd" d="M1613.91 1080.89C1728.93 999.378 1804 865.206 1804 713.5C1804 464.972 1632 141.5 1354 0C1078.5 149 904 464.972 904 713.5C904 865.206 979.07 999.378 1094.09 1080.89C1089.98 1081.44 1085.95 1082.14 1082 1083C994.611 1102.07 888 1246.05 888 1246.05H1152C1198.97 1246.05 1243.63 1228.41 1278.96 1208.62C1296.12 1231.32 1323.34 1246 1354 1246C1384.66 1246 1411.89 1231.32 1429.04 1208.62C1464.37 1228.41 1509.03 1246.05 1556 1246.05H1820C1820 1246.05 1713.39 1102.07 1626 1083C1622.05 1082.14 1618.02 1081.44 1613.91 1080.89Z" fill="url(#paint0_linear)"/>
<circle cx="1353.5" cy="739.5" r="311.5" fill="white"/>
<path d="M1083 606.5C1267.5 619.5 1376.5 574.5 1452 463C1452 463 1306.5 414 1218 463C1129.8 511.834 1083 606.5 1083 606.5Z" fill="#B4B4B4"/>
<path d="M1599 579C1525 571 1459 547 1427.5 456.5C1427.5 456.5 1492.93 471.435 1559 531.614C1627.62 594.114 1599 579 1599 579Z" fill="#B4B4B4"/>
<circle cx="1353.5" cy="739.5" r="311.5" stroke="#0A0000" stroke-width="40"/>
<path d="M969.117 646C969.117 623.909 987.026 606 1009.12 606H1294.02C1318.2 606 1336.85 627.292 1333.67 651.264L1308.91 837.764C1306.27 857.646 1289.31 872.5 1269.26 872.5H1009.12C987.026 872.5 969.117 854.591 969.117 832.5V646Z" fill="black"/>
<path d="M1036.62 738.651L1075.33 777.357L1036.62 816.063M1098 816.063H1154.47" stroke="white" stroke-width="20"/>
<path d="M1374.01 651.267C1370.83 627.294 1389.48 606 1413.66 606H1698C1720.09 606 1738 623.909 1738 646V832.096C1738 854.187 1720.09 872.096 1698 872.096H1438.38C1418.33 872.096 1401.37 857.244 1398.73 837.362L1374.01 651.267Z" fill="black"/>
<path d="M1444.73 738.45L1483.38 777.097L1444.73 815.744M1506.01 815.744H1562.4" stroke="white" stroke-width="20"/>
<path d="M1415 606H1292L1322 636V726C1326.5 696.5 1382.5 695.5 1385.5 726L1393 636L1415 606Z" fill="black"/>
<path d="M116.923 1572.64C125.47 1561.19 135.812 1552.21 147.949 1545.72C160.085 1539.05 172.991 1535.72 186.667 1535.72C220.684 1535.72 245.897 1548.37 262.308 1573.67C278.889 1598.79 287.18 1634.26 287.18 1680.08C287.18 1708.45 282.906 1733.67 274.359 1755.72C265.983 1777.6 253.59 1794.78 237.18 1807.26C220.94 1819.56 201.282 1825.72 178.205 1825.72C164.53 1825.72 151.795 1822.81 140 1817C128.376 1811.36 118.633 1803.15 110.769 1792.38L107.692 1817H35.8975V1436.49L116.923 1428.03V1572.64ZM156.923 1766.74C188.034 1766.74 203.59 1738.2 203.59 1681.1C203.59 1659.22 201.88 1642.04 198.462 1629.56C195.043 1616.91 190.171 1608.11 183.846 1603.15C177.692 1598.03 170.085 1595.46 161.026 1595.46C144.274 1595.46 129.573 1605.97 116.923 1627V1741.87C122.222 1750.25 128.034 1756.49 134.359 1760.59C140.855 1764.69 148.376 1766.74 156.923 1766.74Z" fill="black"/>
<path d="M572.745 1738.54C572.745 1748.62 574.113 1756.06 576.848 1760.85C579.583 1765.46 584.198 1768.97 590.694 1771.36L574.027 1824.69C557.446 1823.15 543.686 1819.56 532.745 1813.92C521.976 1808.11 513.515 1799.74 507.361 1788.79C497.275 1800.93 484.198 1810.16 468.13 1816.49C452.233 1822.64 435.395 1825.72 417.617 1825.72C399.156 1825.72 382.916 1822.13 368.899 1814.95C355.053 1807.6 344.369 1797.51 336.848 1784.69C329.327 1771.7 325.566 1756.83 325.566 1740.08C325.566 1720.59 330.78 1703.92 341.207 1690.08C351.634 1676.23 366.763 1665.72 386.592 1658.54C406.421 1651.19 430.267 1647.51 458.13 1647.51H494.797V1637.26C494.797 1609.39 476.848 1595.46 440.951 1595.46C431.891 1595.46 420.438 1596.74 406.592 1599.31C392.916 1601.87 379.498 1605.38 366.335 1609.82L347.617 1555.97C364.711 1549.48 382.745 1544.52 401.72 1541.1C420.694 1537.51 438.045 1535.72 453.771 1535.72C493.771 1535.72 523.6 1543.84 543.258 1560.08C562.916 1576.32 572.745 1600.25 572.745 1631.87V1738.54ZM445.566 1767.77C454.797 1767.77 464.113 1765.12 473.515 1759.82C482.916 1754.35 490.01 1747 494.797 1737.77V1693.67H474.797C452.574 1693.67 436.079 1697.09 425.31 1703.92C414.54 1710.76 409.156 1720.93 409.156 1734.44C409.156 1745.03 412.318 1753.24 418.643 1759.05C425.139 1764.86 434.113 1767.77 445.566 1767.77Z" fill="black"/>
<path d="M855.204 1572.64C863.751 1561.19 874.093 1552.21 886.23 1545.72C898.367 1539.05 911.273 1535.72 924.948 1535.72C958.965 1535.72 984.179 1548.37 1000.59 1573.67C1017.17 1598.79 1025.46 1634.26 1025.46 1680.08C1025.46 1708.45 1021.19 1733.67 1012.64 1755.72C1004.26 1777.6 991.871 1794.78 975.461 1807.26C959.221 1819.56 939.563 1825.72 916.486 1825.72C902.811 1825.72 890.076 1822.81 878.281 1817C866.657 1811.36 856.914 1803.15 849.05 1792.38L845.974 1817H774.179V1436.49L855.204 1428.03V1572.64ZM895.204 1766.74C926.315 1766.74 941.871 1738.2 941.871 1681.1C941.871 1659.22 940.162 1642.04 936.743 1629.56C933.324 1616.91 928.452 1608.11 922.127 1603.15C915.974 1598.03 908.367 1595.46 899.307 1595.46C882.555 1595.46 867.854 1605.97 855.204 1627V1741.87C860.503 1750.25 866.315 1756.49 872.64 1760.59C879.136 1764.69 886.657 1766.74 895.204 1766.74Z" fill="black"/>
<path d="M1311.03 1738.54C1311.03 1748.62 1312.39 1756.06 1315.13 1760.85C1317.86 1765.46 1322.48 1768.97 1328.98 1771.36L1312.31 1824.69C1295.73 1823.15 1281.97 1819.56 1271.03 1813.92C1260.26 1808.11 1251.8 1799.74 1245.64 1788.79C1235.56 1800.93 1222.48 1810.16 1206.41 1816.49C1190.51 1822.64 1173.68 1825.72 1155.9 1825.72C1137.44 1825.72 1121.2 1822.13 1107.18 1814.95C1093.33 1807.6 1082.65 1797.51 1075.13 1784.69C1067.61 1771.7 1063.85 1756.83 1063.85 1740.08C1063.85 1720.59 1069.06 1703.92 1079.49 1690.08C1089.92 1676.23 1105.04 1665.72 1124.87 1658.54C1144.7 1651.19 1168.55 1647.51 1196.41 1647.51H1233.08V1637.26C1233.08 1609.39 1215.13 1595.46 1179.23 1595.46C1170.17 1595.46 1158.72 1596.74 1144.87 1599.31C1131.2 1601.87 1117.78 1605.38 1104.62 1609.82L1085.9 1555.97C1102.99 1549.48 1121.03 1544.52 1140 1541.1C1158.98 1537.51 1176.33 1535.72 1192.05 1535.72C1232.05 1535.72 1261.88 1543.84 1281.54 1560.08C1301.2 1576.32 1311.03 1600.25 1311.03 1631.87V1738.54ZM1183.85 1767.77C1193.08 1767.77 1202.39 1765.12 1211.8 1759.82C1221.2 1754.35 1228.29 1747 1233.08 1737.77V1693.67H1213.08C1190.86 1693.67 1174.36 1697.09 1163.59 1703.92C1152.82 1710.76 1147.44 1720.93 1147.44 1734.44C1147.44 1745.03 1150.6 1753.24 1156.92 1759.05C1163.42 1764.86 1172.39 1767.77 1183.85 1767.77Z" fill="black"/>
<path d="M1498.64 1767.77C1512.49 1767.77 1523.43 1765.63 1531.46 1761.36C1539.67 1756.91 1543.77 1750.5 1543.77 1742.13C1543.77 1736.15 1542.15 1731.27 1538.9 1727.51C1535.65 1723.58 1529.58 1719.91 1520.7 1716.49C1511.81 1712.9 1497.96 1708.54 1479.16 1703.41C1451.81 1696.06 1430.87 1685.97 1416.34 1673.15C1401.98 1660.33 1394.8 1642.56 1394.8 1619.82C1394.8 1603.41 1399.33 1588.88 1408.39 1576.23C1417.62 1563.58 1431.12 1553.67 1448.9 1546.49C1466.68 1539.31 1488.05 1535.72 1513 1535.72C1556.25 1535.72 1593 1546.74 1623.26 1568.79L1590.95 1616.49C1579.16 1609.31 1566.76 1603.67 1553.77 1599.56C1540.95 1595.46 1528.13 1593.41 1515.31 1593.41C1502.15 1593.41 1492.32 1595.21 1485.82 1598.79C1479.5 1602.21 1476.34 1607.43 1476.34 1614.44C1476.34 1619.22 1477.96 1623.24 1481.21 1626.49C1484.63 1629.74 1490.7 1633.07 1499.41 1636.49C1508.3 1639.91 1522.06 1644.26 1540.7 1649.56C1560.35 1655.03 1576.34 1661.1 1588.64 1667.77C1600.95 1674.26 1610.52 1682.98 1617.36 1693.92C1624.37 1704.69 1627.87 1718.62 1627.87 1735.72C1627.87 1754.86 1622.06 1771.27 1610.44 1784.95C1598.99 1798.45 1583.52 1808.62 1564.03 1815.46C1544.54 1822.3 1522.92 1825.72 1499.16 1825.72C1473.69 1825.72 1450.78 1822.13 1430.44 1814.95C1410.1 1807.6 1392.58 1797.51 1377.87 1784.69L1418.64 1739.05C1429.93 1747.94 1442.32 1754.95 1455.82 1760.08C1469.33 1765.21 1483.6 1767.77 1498.64 1767.77Z" fill="black"/>
<path d="M1778.06 1571.62C1800.79 1547.68 1827.46 1535.72 1858.06 1535.72C1882.16 1535.72 1900.62 1542.81 1913.44 1557C1926.43 1571.02 1932.93 1591.02 1932.93 1617V1817H1851.9V1639.56C1851.9 1628.45 1851.05 1619.74 1849.34 1613.41C1847.8 1607.09 1845.15 1602.56 1841.39 1599.82C1837.63 1596.91 1832.41 1595.46 1825.75 1595.46C1817.54 1595.46 1809.59 1598.28 1801.9 1603.92C1794.21 1609.56 1786.26 1617.77 1778.06 1628.54V1817H1697.03V1436.49L1778.06 1428.54V1571.62Z" fill="black"/>
<path d="M2208.72 1817H2127.69V1436.49L2208.72 1428.03V1817ZM2296.67 1665.21L2393.59 1817H2301.28L2211.8 1667.77L2301.28 1544.69H2386.16L2296.67 1665.21Z" fill="black"/>
<path d="M2664.54 1738.54C2664.54 1748.62 2665.91 1756.06 2668.64 1760.85C2671.38 1765.46 2676 1768.97 2682.49 1771.36L2665.82 1824.69C2649.24 1823.15 2635.48 1819.56 2624.54 1813.92C2613.77 1808.11 2605.31 1799.74 2599.16 1788.79C2589.07 1800.93 2576 1810.16 2559.93 1816.49C2544.03 1822.64 2527.19 1825.72 2509.41 1825.72C2490.95 1825.72 2474.71 1822.13 2460.7 1814.95C2446.85 1807.6 2436.17 1797.51 2428.64 1784.69C2421.12 1771.7 2417.36 1756.83 2417.36 1740.08C2417.36 1720.59 2422.58 1703.92 2433 1690.08C2443.43 1676.23 2458.56 1665.72 2478.39 1658.54C2498.22 1651.19 2522.06 1647.51 2549.93 1647.51H2586.59V1637.26C2586.59 1609.39 2568.64 1595.46 2532.75 1595.46C2523.69 1595.46 2512.23 1596.74 2498.39 1599.31C2484.71 1601.87 2471.29 1605.38 2458.13 1609.82L2439.41 1555.97C2456.51 1549.48 2474.54 1544.52 2493.52 1541.1C2512.49 1537.51 2529.84 1535.72 2545.57 1535.72C2585.57 1535.72 2615.4 1543.84 2635.06 1560.08C2654.71 1576.32 2664.54 1600.25 2664.54 1631.87V1738.54ZM2537.36 1767.77C2546.59 1767.77 2555.91 1765.12 2565.31 1759.82C2574.71 1754.35 2581.81 1747 2586.59 1737.77V1693.67H2566.59C2544.37 1693.67 2527.88 1697.09 2517.11 1703.92C2506.34 1710.76 2500.95 1720.93 2500.95 1734.44C2500.95 1745.03 2504.11 1753.24 2510.44 1759.05C2516.94 1764.86 2525.91 1767.77 2537.36 1767.77Z" fill="black"/>
<circle cx="680" cy="1680" r="53" fill="black"/>
<circle cx="2033" cy="1680" r="53" fill="black"/>
<defs>
<linearGradient id="paint0_linear" x1="1370" y1="0" x2="1370" y2="1246.52" gradientUnits="userSpaceOnUse">
<stop stop-color="#E41F26"/>
<stop offset="1" stop-color="#B70000"/>
</linearGradient>
</defs>
</svg>
