<svg width="203" height="136" viewBox="0 0 203 136" fill="none" xmlns="http://www.w3.org/2000/svg">
<g opacity="0.96">
<path d="M70.101 60.1296L85.899 71.3704C87.4858 72.4995 86.687 75 84.7395 75H75.9409C75.345 75 74.7801 74.7342 74.4001 74.2751L51.8573 47.0359C51.3389 46.4095 51.2513 45.5316 51.6358 44.8151L72.5685 5.80422C72.8426 5.29341 73.3248 4.92666 73.8903 4.79897L87.0736 1.82209C87.9231 1.63027 88.7991 2.01021 89.2395 2.76153L94.7722 12.1996C95.641 13.6817 94.3602 15.4972 92.6726 15.1757L77.6595 12.3161C76.7012 12.1336 75.7511 12.669 75.4109 13.5833L68.3911 32.4488C68.1482 33.1018 68.2625 33.8341 68.6929 34.3819L78.2915 46.5983C78.7303 47.1568 79.4324 47.4406 80.1361 47.3441L102.711 44.2455C103.727 44.106 104.684 44.7577 104.927 45.7542L108.399 60.0273C108.705 61.2865 107.751 62.5 106.455 62.5H87.5C86.8705 62.5 86.2777 62.2036 85.9 61.7L82.6 57.3C82.2223 56.7964 81.6295 56.5 81 56.5H71.2605C69.313 56.5 68.5142 59.0005 70.101 60.1296Z" fill="#92EB00"/>
<path d="M117.899 20.8704L102.101 9.62958C100.514 8.50049 101.313 6 103.261 6L112.059 6C112.655 6 113.22 6.26575 113.6 6.72486L136.143 33.9641C136.661 34.5905 136.749 35.4684 136.364 36.1849L115.432 75.1958C115.157 75.7066 114.675 76.0733 114.11 76.201L100.926 79.1779C100.077 79.3697 99.2009 78.9898 98.7605 78.2385L93.2278 68.8004C92.359 67.3183 93.6398 65.5028 95.3274 65.8243L110.34 68.6839C111.299 68.8664 112.249 68.331 112.589 67.4167L119.609 48.5512C119.852 47.8982 119.737 47.1659 119.307 46.6181L109.708 34.4017C109.27 33.8432 108.568 33.5594 107.864 33.6559L85.2886 36.7545C84.2726 36.894 83.3157 36.2423 83.0733 35.2458L79.6015 20.9727C79.2952 19.7135 80.2489 18.5 81.5448 18.5L100.5 18.5C101.13 18.5 101.722 18.7964 102.1 19.3L105.4 23.7C105.778 24.2036 106.37 24.5 107 24.5L116.739 24.5C118.687 24.5 119.486 21.9995 117.899 20.8704Z" fill="#00B2FF"/>
<path d="M9.4 125.4C7.06667 125.4 5.16667 124.667 3.7 123.2C2.26667 121.733 1.45 119.767 1.25 117.3L5.7 115.95C5.96667 117.817 6.41667 119.2 7.05 120.1C7.71667 121 8.65 121.45 9.85 121.45C10.7833 121.45 11.5 121.183 12 120.65C12.5333 120.083 12.8 119.333 12.8 118.4C12.8 117.567 12.6167 116.817 12.25 116.15C11.8833 115.483 11.2833 114.8 10.45 114.1L5.5 109.85C4.36667 108.883 3.48333 107.867 2.85 106.8C2.25 105.7 1.95 104.367 1.95 102.8C1.95 100.567 2.61667 98.8333 3.95 97.6C5.28333 96.3333 7.1 95.7 9.4 95.7C11.6 95.7 13.3167 96.4167 14.55 97.85C15.8167 99.25 16.55 101.067 16.75 103.3L13.15 104.65C12.9167 103.017 12.5333 101.783 12 100.95C11.4667 100.083 10.6667 99.65 9.6 99.65C8.73333 99.65 8.03333 99.9333 7.5 100.5C7 101.067 6.75 101.767 6.75 102.6C6.75 103.667 7.23333 104.633 8.2 105.5L13.3 110.2C14.6 111.4 15.6 112.583 16.3 113.75C17.0333 114.917 17.4 116.333 17.4 118C17.4 120.4 16.6833 122.233 15.25 123.5C13.8167 124.767 11.8667 125.4 9.4 125.4Z" fill="black"/>
<path d="M21.4012 96.1H26.7512V98.4C28.3178 96.6 30.1512 95.7 32.2512 95.7C34.8845 95.7 36.6345 96.8333 37.5012 99.1C38.4012 101.333 38.8512 103.817 38.8512 106.55V113.55C38.8512 117.083 38.3012 119.95 37.2012 122.15C36.1345 124.317 34.2845 125.4 31.6512 125.4C29.9512 125.4 28.3178 124.55 26.7512 122.85V134.5H21.4012V96.1ZM30.6012 121.2C31.8345 121.2 32.6178 120.583 32.9512 119.35C33.3178 118.083 33.5012 116.15 33.5012 113.55V106.55C33.5012 104.417 33.3012 102.783 32.9012 101.65C32.5012 100.483 31.6678 99.9 30.4012 99.9C29.1678 99.9 27.9512 100.4 26.7512 101.4V119.9C27.9178 120.767 29.2012 121.2 30.6012 121.2Z" fill="black"/>
<path d="M51.7156 125.4C49.4823 125.4 47.749 124.983 46.5156 124.15C45.2823 123.283 44.4156 122.017 43.9156 120.35C43.4156 118.683 43.1656 116.517 43.1656 113.85V107.25C43.1656 103.25 43.7823 100.333 45.0156 98.5C46.2823 96.6333 48.5156 95.7 51.7156 95.7C54.049 95.7 55.799 96.1833 56.9656 97.15C58.1656 98.1167 58.949 99.4833 59.3156 101.25C59.7156 102.983 59.9156 105.333 59.9156 108.3V110.65H48.5156V116.45C48.5156 118.217 48.7656 119.5 49.2656 120.3C49.799 121.067 50.6323 121.45 51.7656 121.45C52.899 121.45 53.6656 121.067 54.0656 120.3C54.4656 119.5 54.6656 118.3 54.6656 116.7V114.95H59.8656V116.05C59.8656 119.083 59.2156 121.4 57.9156 123C56.6156 124.6 54.549 125.4 51.7156 125.4ZM54.6656 107.75V105.15C54.6656 103.183 54.4656 101.783 54.0656 100.95C53.699 100.083 52.899 99.65 51.6656 99.65C50.799 99.65 50.1323 99.85 49.6656 100.25C49.2323 100.65 48.9323 101.317 48.7656 102.25C48.599 103.15 48.5156 104.467 48.5156 106.2V107.75H54.6656Z" fill="black"/>
<path d="M72.6605 125.4C70.3939 125.4 68.6439 124.95 67.4105 124.05C66.1772 123.117 65.3272 121.833 64.8605 120.2C64.4272 118.533 64.2105 116.433 64.2105 113.9V107.25C64.2105 104.65 64.4272 102.517 64.8605 100.85C65.3272 99.1833 66.1772 97.9167 67.4105 97.05C68.6439 96.15 70.3939 95.7 72.6605 95.7C74.7272 95.7 76.3272 96.0333 77.4605 96.7C78.6272 97.3667 79.4272 98.3667 79.8605 99.7C80.3272 101 80.5605 102.7 80.5605 104.8V106.5H75.7105V104.75C75.7105 102.85 75.4939 101.533 75.0605 100.8C74.6605 100.033 73.8772 99.65 72.7105 99.65C71.8105 99.65 71.1439 99.85 70.7105 100.25C70.2772 100.65 69.9772 101.3 69.8105 102.2C69.6439 103.1 69.5605 104.417 69.5605 106.15V115.25C69.5605 116.917 69.6605 118.2 69.8605 119.1C70.0605 119.967 70.3772 120.583 70.8105 120.95C71.2772 121.283 71.9272 121.45 72.7605 121.45C73.9939 121.45 74.7939 121.05 75.1605 120.25C75.5272 119.417 75.7105 118.15 75.7105 116.45V114.1H80.5605V116.1C80.5605 119.233 79.9772 121.567 78.8105 123.1C77.6772 124.633 75.6272 125.4 72.6605 125.4Z" fill="black"/>
<path d="M89.4672 125.4C87.9005 125.4 86.7838 124.833 86.1172 123.7C85.4505 122.567 85.1172 121.167 85.1172 119.5V96.1H90.4672V117.9C90.4672 119 90.6338 119.833 90.9672 120.4C91.3005 120.933 91.9005 121.2 92.7672 121.2C93.8339 121.2 95.0838 120.6 96.5172 119.4V96.1H101.867V125H96.5172V122.15C94.2172 124.317 91.8672 125.4 89.4672 125.4Z" fill="black"/>
<path d="M107.839 84.5H113.189V125H107.839V84.5Z" fill="black"/>
<path d="M123.964 125.4C122.864 125.4 121.864 125.083 120.964 124.45C120.098 123.817 119.414 122.983 118.914 121.95C118.414 120.917 118.164 119.833 118.164 118.7C118.164 116.433 118.648 114.6 119.614 113.2C120.581 111.767 121.814 110.633 123.314 109.8C124.814 108.967 126.898 108.017 129.564 106.95V104.9C129.564 103 129.364 101.667 128.964 100.9C128.598 100.1 127.831 99.7 126.664 99.7C124.631 99.7 123.614 101.067 123.614 103.8V105.25L118.314 105.05C118.381 101.85 119.114 99.5 120.514 98C121.914 96.4667 124.081 95.7 127.014 95.7C129.781 95.7 131.781 96.4667 133.014 98C134.281 99.5 134.914 101.783 134.914 104.85V118.05C134.914 120.217 135.081 122.533 135.414 125H130.514C130.148 123.1 129.914 121.683 129.814 120.75C129.414 122.05 128.714 123.15 127.714 124.05C126.748 124.95 125.498 125.4 123.964 125.4ZM126.064 120.8C126.764 120.8 127.448 120.533 128.114 120C128.781 119.433 129.264 118.9 129.564 118.4V110.2C128.131 111 127.014 111.7 126.214 112.3C125.448 112.867 124.798 113.533 124.264 114.3C123.764 115.067 123.514 115.983 123.514 117.05C123.514 118.25 123.731 119.183 124.164 119.85C124.598 120.483 125.231 120.8 126.064 120.8Z" fill="black"/>
<path d="M147.363 125.4C143.196 125.4 141.113 123.1 141.113 118.5V99.65H138.063V96.1H141.113V87.65H146.463V96.1H151.113V99.65H146.463V118.15C146.463 119.317 146.646 120.133 147.013 120.6C147.38 121.067 148.08 121.3 149.113 121.3C149.78 121.3 150.43 121.25 151.063 121.15V125.1C149.73 125.3 148.496 125.4 147.363 125.4Z" fill="black"/>
<path d="M155.394 86.2H160.744V91.8H155.394V86.2ZM155.394 96.1H160.744V125H155.394V96.1Z" fill="black"/>
<path d="M164.52 96.1H169.92L173.47 119.35L177.07 96.1H182.27L176.77 125H170.22L164.52 96.1Z" fill="black"/>
<path d="M193.708 125.4C191.474 125.4 189.741 124.983 188.508 124.15C187.274 123.283 186.408 122.017 185.908 120.35C185.408 118.683 185.158 116.517 185.158 113.85V107.25C185.158 103.25 185.774 100.333 187.008 98.5C188.274 96.6333 190.508 95.7 193.708 95.7C196.041 95.7 197.791 96.1833 198.958 97.15C200.158 98.1167 200.941 99.4833 201.308 101.25C201.708 102.983 201.908 105.333 201.908 108.3V110.65H190.508V116.45C190.508 118.217 190.758 119.5 191.258 120.3C191.791 121.067 192.624 121.45 193.758 121.45C194.891 121.45 195.658 121.067 196.058 120.3C196.458 119.5 196.658 118.3 196.658 116.7V114.95H201.858V116.05C201.858 119.083 201.208 121.4 199.908 123C198.608 124.6 196.541 125.4 193.708 125.4ZM196.658 107.75V105.15C196.658 103.183 196.458 101.783 196.058 100.95C195.691 100.083 194.891 99.65 193.658 99.65C192.791 99.65 192.124 99.85 191.658 100.25C191.224 100.65 190.924 101.317 190.758 102.25C190.591 103.15 190.508 104.467 190.508 106.2V107.75H196.658Z" fill="black"/>
</g>
</svg>
