<svg width="333" height="228" viewBox="0 0 333 228" fill="none" xmlns="http://www.w3.org/2000/svg">
<circle cx="141" cy="95" r="95" fill="url(#paint0_linear)"/>
<path d="M55 161H295V228H55V161Z" fill="url(#paint1_linear)"/>
<circle cx="55.5" cy="172.5" r="55.5" fill="url(#paint2_linear)"/>
<circle cx="294.5" cy="189.5" r="38.5" fill="url(#paint3_linear)"/>
<circle cx="239" cy="120" r="62" fill="url(#paint4_linear)"/>
<rect x="89" y="69" width="150" height="150" fill="black"/>
<rect x="103" y="190" width="56" height="10" fill="white"/>
<path d="M135.04 144.02C153.4 144.02 166.745 130.165 166.745 113.25V113.08C166.745 96.165 153.57 82.48 135.21 82.48C116.85 82.48 103.505 96.335 103.505 113.25V113.42C103.505 130.335 116.68 144.02 135.04 144.02ZM135.21 131.95C124.67 131.95 117.19 123.45 117.19 113.25V113.08C117.19 102.88 124.5 94.55 135.04 94.55C145.58 94.55 153.06 103.05 153.06 113.25V113.42C153.06 123.62 145.75 131.95 135.21 131.95Z" fill="white"/>
<path d="M162.207 143H175.552L180.992 129.655H206.152L211.592 143H225.277L199.777 83.075H187.707L162.207 143ZM185.667 118.095L193.572 98.8L201.477 118.095H185.667Z" fill="white"/>
<defs>
<linearGradient id="paint0_linear" x1="72.2194" y1="38.826" x2="216.27" y2="94.5329" gradientUnits="userSpaceOnUse">
<stop stop-color="#72D7FF"/>
<stop offset="1" stop-color="#1981FF"/>
</linearGradient>
<linearGradient id="paint1_linear" x1="89.0465" y1="222" x2="259.214" y2="229.474" gradientUnits="userSpaceOnUse">
<stop stop-color="#A1E3FF"/>
<stop offset="1" stop-color="#7DCAFC"/>
</linearGradient>
<linearGradient id="paint2_linear" x1="111" y1="100" x2="48.1055" y2="228.089" gradientUnits="userSpaceOnUse">
<stop stop-color="#007AFF"/>
<stop offset="1" stop-color="#ACEBFF"/>
</linearGradient>
<linearGradient id="paint3_linear" x1="294" y1="155.5" x2="318.5" y2="232" gradientUnits="userSpaceOnUse">
<stop stop-color="#8DD8FF"/>
<stop offset="1" stop-color="#2688FF"/>
</linearGradient>
<linearGradient id="paint4_linear" x1="204.5" y1="174.5" x2="285" y2="66" gradientUnits="userSpaceOnUse">
<stop stop-color="#0085FF"/>
<stop offset="1" stop-color="#A4E6FF"/>
</linearGradient>
</defs>
</svg>
