<svg width="534" height="242" viewBox="0 0 534 242" fill="none" xmlns="http://www.w3.org/2000/svg">
<path d="M310 35L150 0L211.5 179.5L310 35Z" fill="#EBF000"/>
<circle cx="64" cy="123.5" r="64" fill="#BA5BF3"/>
<rect x="337.987" y="44.6235" width="158.025" height="201.523" transform="rotate(-11.6889 337.987 44.6235)" fill="#95DE1D"/>
<path d="M93.9688 201.078C109.105 201.078 121.02 193.363 126.684 181.742H127.074V199.418H150.902V58.5H126.586V113.285H126C120.531 101.859 108.812 94.1445 93.9688 94.1445C67.8945 94.1445 51 114.848 51 147.562C51 180.473 67.8945 201.078 93.9688 201.078ZM101.293 114.164C116.625 114.164 126.684 127.348 126.684 147.66C126.684 168.168 116.625 181.156 101.293 181.156C85.5703 181.156 75.9023 168.266 75.9023 147.66C75.9023 127.152 85.668 114.164 101.293 114.164Z" fill="black"/>
<path d="M196.605 139.066H196.312V58.5H171.996V199.418H196.312V163.48L204.516 155.18L237.23 199.418H265.355L222.191 140.434L263.598 95.9023H235.57L196.605 139.066Z" fill="black"/>
<path d="M338.891 58.5V229.594H398.695V207.43H362.328V79.6641H398.695V58.5H338.891Z" fill="black"/>
<path d="M513.266 229.594V58.5H453.363V79.6641H489.828V207.43H453.363V229.594H513.266Z" fill="black"/>
<path d="M314.027 139.066H286V110.941H314.027V139.066Z" fill="black"/>
<path d="M314.027 183.984H286V155.859H314.027V183.984Z" fill="black"/>
</svg>
