<svg width="114" height="114" viewBox="0 0 114 114" fill="none" xmlns="http://www.w3.org/2000/svg">
<path d="M0 0H114V114H0V0Z" fill="white"/>
<mask id="mask0" mask-type="alpha" maskUnits="userSpaceOnUse" x="67" y="84" width="17" height="14">
<path d="M67.45 97.85V84.55L83.6 90.25V92.15L67.45 97.85Z" fill="url(#paint0_linear)"/>
</mask>
<g mask="url(#mask0)">
<rect x="76" y="83.6001" width="7.6" height="15.2" fill="#C4C4C4"/>
<rect x="76" y="83.6001" width="7.6" height="15.2" fill="url(#paint1_linear)"/>
<path d="M66.5 83.6001H76V98.8001H66.5V83.6001Z" fill="url(#paint2_linear)"/>
</g>
<path d="M33.25 16.1499H46.55V29.4499H33.25V16.1499Z" fill="url(#paint3_linear)"/>
<path d="M75.9499 16.1501H50.3499V29.45H65.5499C66.5993 29.45 67.4499 30.3006 67.4499 31.35C67.4499 32.3993 66.5993 33.25 65.5499 33.25H20.95C19.2699 33.25 18.4298 33.25 17.7881 33.5769C17.2236 33.8646 16.7646 34.3235 16.477 34.888C16.15 35.5297 16.15 36.3698 16.15 38.05V58.85C16.15 60.5301 16.15 61.3702 16.477 62.0119C16.7646 62.5764 17.2236 63.0354 17.7881 63.323C18.4298 63.65 19.2699 63.65 20.95 63.65H82.65C83.6994 63.65 84.55 64.5006 84.55 65.55C84.55 66.5993 83.6994 67.45 82.65 67.45H38.05C36.3699 67.45 35.5298 67.45 34.8881 67.7769C34.3236 68.0646 33.8646 68.5235 33.577 69.088C33.25 69.7297 33.25 70.5698 33.25 72.25V93.05C33.25 94.7301 33.25 95.5702 33.577 96.2119C33.8646 96.7764 34.3236 97.2354 34.8881 97.523C35.5298 97.85 36.3699 97.85 38.05 97.85H63.65V84.55H48.45C47.4007 84.55 46.55 83.6993 46.55 82.65C46.55 81.6006 47.4007 80.75 48.45 80.75H93.05C94.7302 80.75 95.5703 80.75 96.212 80.423C96.7765 80.1354 97.2354 79.6764 97.523 79.1119C97.85 78.4702 97.85 77.6301 97.85 75.95V55.15C97.85 53.4698 97.85 52.6297 97.523 51.988C97.2354 51.4235 96.7765 50.9646 96.212 50.6769C95.5703 50.35 94.7302 50.35 93.05 50.35H31.3499C30.3006 50.35 29.4499 49.4993 29.4499 48.45C29.4499 47.4006 30.3006 46.55 31.3499 46.55H75.9499C77.6301 46.55 78.4701 46.55 79.1119 46.223C79.6764 45.9354 80.1353 45.4764 80.4229 44.9119C80.7499 44.2702 80.7499 43.4301 80.7499 41.75V20.9501C80.7499 19.27 80.7499 18.4299 80.4229 17.7882C80.1353 17.2237 79.6764 16.7647 79.1119 16.4771C78.4701 16.1501 77.6301 16.1501 75.9499 16.1501Z" fill="url(#paint4_linear)"/>
<defs>
<linearGradient id="paint0_linear" x1="75.9145" y1="84.5881" x2="75.9145" y2="98.8001" gradientUnits="userSpaceOnUse">
<stop stop-color="#FFEECF"/>
<stop offset="1" stop-color="#FFDA97"/>
</linearGradient>
<linearGradient id="paint1_linear" x1="80.2512" y1="86.2219" x2="80.2512" y2="97.5915" gradientUnits="userSpaceOnUse">
<stop stop-color="#5B5B5B"/>
<stop offset="1" stop-color="#323232"/>
</linearGradient>
<linearGradient id="paint2_linear" x1="71.7303" y1="84.5881" x2="71.7303" y2="98.8001" gradientUnits="userSpaceOnUse">
<stop stop-color="#FEE4B6"/>
<stop offset="1" stop-color="#EDA461"/>
</linearGradient>
<linearGradient id="paint3_linear" x1="39.9" y1="15.1999" x2="39.9" y2="30.3999" gradientUnits="userSpaceOnUse">
<stop stop-color="#FB8F8F"/>
<stop offset="1" stop-color="#DE6977"/>
</linearGradient>
<linearGradient id="paint4_linear" x1="57" y1="15.2001" x2="57" y2="98.8001" gradientUnits="userSpaceOnUse">
<stop stop-color="#FF9B2A"/>
<stop offset="1" stop-color="#FA702D"/>
</linearGradient>
</defs>
</svg>
