<svg width="1193" height="220" viewBox="0 0 1193 220" fill="none" xmlns="http://www.w3.org/2000/svg">
<rect width="1193" height="220" fill="white"/>
<mask id="mask0" mask-type="alpha" maskUnits="userSpaceOnUse" x="472" y="0" width="221" height="220">
<path fill-rule="evenodd" clip-rule="evenodd" d="M675.14 169.946C686.369 152.701 692.894 132.113 692.894 110C692.894 49.2487 643.645 0 582.894 0C556.984 0 533.167 8.95772 514.37 23.9451C526.608 22.4639 537.526 26.4389 547.085 33.4132C549.757 35.3625 552.342 37.5589 554.849 39.9588C563.505 36.439 572.973 34.5 582.894 34.5C624.039 34.5 657.394 67.8548 657.394 109C657.394 130.717 648.101 150.265 633.275 163.882C634.405 165.215 635.537 166.473 636.672 167.651C643.558 174.804 649.768 178.215 655.594 178.578C660.716 178.897 667.12 176.947 675.14 169.946ZM654.463 193.536C635.225 210.033 610.223 220 582.894 220C522.142 220 472.894 170.751 472.894 110C472.894 89.9246 478.271 71.1053 487.665 54.9041C498.517 44.6626 507.66 40.1209 515.292 38.9569C523.255 37.7425 530.711 40.0345 538.244 45.5306C539.1 46.1554 539.953 46.819 540.804 47.5202C521.232 60.9452 508.394 83.4733 508.394 109C508.394 150.145 541.748 183.5 582.894 183.5C596.921 183.5 610.043 179.623 621.247 172.882C622.763 174.702 624.302 176.431 625.866 178.055C633.894 186.393 643.345 192.775 654.463 193.536ZM551.539 58.4222C534.643 68.9187 523.394 87.6456 523.394 109C523.394 126.213 530.703 141.719 542.388 152.584L574.059 92.6639C569.717 84.942 565.322 77.5788 560.798 70.8727C557.724 66.3174 554.642 62.1455 551.539 58.4222ZM582.894 168.5C572.689 168.5 563.085 165.931 554.691 161.405L582.677 108.46C584.115 111.154 585.556 113.87 586.998 116.59C592.37 126.72 597.772 136.907 603.226 146.258C606.161 151.289 609.163 156.171 612.252 160.765C603.589 165.688 593.57 168.5 582.894 168.5ZM624.272 151.756C621.59 147.73 618.899 143.356 616.183 138.7C610.897 129.638 605.693 119.826 600.351 109.752L600.35 109.75L600.349 109.748L600.346 109.742L600.345 109.74C598.724 106.684 597.09 103.604 595.438 100.514C588.403 87.356 581.068 74.0971 573.232 62.4829C570.79 58.8643 568.27 55.3595 565.661 52.0337C571.116 50.3858 576.901 49.5 582.894 49.5C615.754 49.5 642.394 76.1391 642.394 109C642.394 125.781 635.447 140.939 624.272 151.756Z" fill="#C4C4C4"/>
</mask>
<g mask="url(#mask0)">
<circle cx="582.894" cy="110" r="110" fill="url(#paint0_radial)"/>
<g style="mix-blend-mode:overlay">
<circle cx="582.894" cy="110" r="110" fill="#0B225F"/>
</g>
<mask id="mask1" mask-type="alpha" maskUnits="userSpaceOnUse" x="472" y="0" width="221" height="220">
<circle cx="582.894" cy="110" r="110" fill="#C4C4C4"/>
</mask>
<g mask="url(#mask1)">
<path d="M500.894 88V81.5L502.894 77.5L505.894 75.5L509.894 71H514.394L515.894 69L516.894 71L518.894 72L519.894 73.5L523.394 72H529.394L532.394 75.5L534.394 77.5L537.894 79.5L540.394 81.5L546.394 79.5L551.894 85.5L552.894 91.5L554.894 93L562.894 94L564.894 98H572.394L574.894 99L578.894 102.5H582.894L584.894 105.5V110L574.894 120V130L569.394 140L561.894 143L557.394 147.5L558.394 154.5H554.894V158.5H551.894L552.894 160.5L550.394 161.5V163.5L545.894 165.5V172L542.394 170L538.894 173.5L541.394 177H538.894L540.394 180H537.894V182L540.394 185L542.394 187.5L538.894 190L540.394 192L543.394 193.5L544.394 196L546.394 198.5H542.394L535.894 195L531.894 189L526.894 182L525.894 180L524.894 178L523.394 172.5L522.394 170V164.5H520.894V157H519.894V148.5L518.894 147.5V144L516.894 143V138.5H515.894V134L514.394 132.5L510.894 130V128H505.894L502.894 121.5L500.894 118L499.394 116L496.894 111.5H494.394L496.894 108V105.5L494.394 101.5L496.894 94L500.894 88Z" fill="#224F0A"/>
<path d="M587.394 0.5L593.394 -3L623.894 -4L620.394 5.5L599.894 0.5L617.894 9L615.394 12L611.394 10.5V9H607.394V10.5H604.394V7.5L607.394 5.5L593.394 0.5H587.394Z" fill="#224F0A"/>
<path d="M620.394 10.5L622.394 7.5L626.394 5.5L660.394 31L655.394 32.5V37L646.894 28L645.394 31L636.394 21L635.394 28L631.394 18L629.394 22V25L626.394 28H615.394V22V19.5L617.894 16.5H622.394L617.894 13.5L620.394 10.5Z" fill="#224F0A"/>
<path d="M658.394 41L663.894 44.5H668.394L686.394 66.5L691.394 105.5L682.894 137.5L679.894 141L675.894 148.5L672.394 152.5L670.394 155.5L668.394 159.5L663.894 164.5V166.5H656.894L651.894 169.5V166.5L655.394 162.5L656.894 152.5L658.394 148.5L660.394 144H658.394V131H661.394V125.5L663.894 122.5L661.394 121L663.894 116.5V109.5L661.394 105.5L658.394 103.5L660.394 99V92.5L653.894 89.5V86.5L649.894 83.5L645.394 85.5H641.394L638.394 83.5L636.394 85.5H629.894L626.394 82.5L623.894 78.5L620.394 75L617.894 72.5L615.394 70L613.394 66.5V64L615.394 60L613.394 56.5L611.394 51.5L613.394 47L620.394 39V34.5L626.394 33L631.394 30H638.894L641.394 33L645.394 37.5H649.894L655.394 43L658.394 41Z" fill="#6CB024"/>
<path d="M494.894 70L492.394 78.5V82.5L488.894 73H482.894V70H479.894L475.894 64L472.894 50L514.394 -2L587.894 -13L591.894 -1L584.894 -2L582.394 -1V1H573.894L570.894 4H564.394L566.894 -2L561.394 -1L550.894 2.5H561.394L550.894 5L555.394 9.5V12.5L557.394 15.5H553.394L548.894 12.5H541.894L543.894 18.5H539.394V21.5L533.894 20L530.894 24L525.394 25.5V27H522.394V30H518.894V33L510.394 38V41L506.894 42L503.894 50L500.894 42L488.894 50L482.894 64H485.394L490.394 57.5L494.894 59.5L490.394 67.5L494.894 70Z" fill="#224F0A"/>
<path d="M498.894 56.5L497.394 54.5L502.394 52L505.894 53.5L508.894 54.5V57.5L506.894 58.5L503.894 56.5H498.894Z" fill="#224F0A"/>
<path d="M512.394 60.5L511.394 56.5L516.894 57.5V60.5L514.894 62.5L512.394 60.5Z" fill="#224F0A"/>
<path d="M520.394 60.5L518.894 58.5L521.394 57.5L522.394 60.5H520.394Z" fill="#224F0A"/>
<path d="M539.394 204V207.5V218.5L576.894 223.5L609.894 217.5L608.894 210L607.894 207.5L604.394 205.5H593.894L592.394 207.5H588.894L581.894 211H571.394L560.894 207.5L557.394 201.5H553.894V207.5L550.894 209L544.894 205.5L539.394 204Z" fill="#6CB024"/>
</g>
<mask id="mask2" mask-type="alpha" maskUnits="userSpaceOnUse" x="472" y="-15" width="222" height="236">
<path d="M492.394 76.5H500.894L503.894 74.5L507.894 70H512.394L513.894 68L514.894 70L516.894 71L517.894 72.5L521.394 71H527.394L530.394 74.5L532.394 76.5L535.894 78.5L538.394 80.5L544.394 78.5L549.894 84.5L550.894 90.5L552.894 92L560.894 93L562.894 97H570.394L572.894 98L576.894 101.5H580.894L582.894 104.5V109L572.894 119V129L567.394 139L559.894 142L555.394 146.5L556.394 153.5H552.894V157.5H549.894L550.894 159.5L548.394 160.5V162.5L543.894 164.5V171L540.394 169L536.894 172.5L539.394 176H536.894L538.394 179H535.894V181L538.394 184L540.394 186.5L536.894 189L538.394 191L541.394 192.5L542.394 195L544.394 197.5H540.394L533.894 194L529.894 188L524.894 181L523.894 179L522.894 177L521.394 171.5L520.394 169V163.5H518.894V156H517.894V147.5L516.894 146.5V143L514.894 142V137.5H513.894V133L512.394 131.5L508.894 129V127H503.894L500.894 120.5L498.894 117L497.394 115L494.894 110.5H492.394L494.894 107V104.5L492.394 100.5L494.894 93L498.894 87V80.5H492.394L488.894 71H482.894V68H479.894L475.894 62L472.894 48L514.394 -4L587.894 -15L591.894 -3L584.894 -4L582.394 -3V-1H573.894L570.894 2H564.394L566.894 -4L561.394 -3L550.894 0.5H561.394L550.894 3L555.394 7.5V10.5L557.394 13.5H553.394L548.894 10.5H541.894L543.894 16.5H539.394V19.5L533.894 18L530.894 22L525.394 23.5V25H522.394V28H518.894V31L510.394 36V39L506.894 40L503.894 48L500.894 40L488.894 48L482.894 62H485.394L490.394 55.5L494.894 57.5L490.394 65.5L494.894 68L492.394 76.5Z" fill="#C4C4C4"/>
<path d="M498.894 54.5L497.394 52.5L502.394 50L505.894 51.5L508.894 52.5V55.5L506.894 56.5L503.894 54.5H498.894Z" fill="#C4C4C4"/>
<path d="M512.394 58.5L511.394 54.5L516.894 55.5V58.5L514.894 60.5L512.394 58.5Z" fill="#C4C4C4"/>
<path d="M520.394 58.5L518.894 56.5L521.394 55.5L522.394 58.5H520.394Z" fill="#C4C4C4"/>
<path d="M538.394 206V209.5V220.5L608.894 219.5L607.894 212L606.894 209.5L603.394 207.5H592.894L591.394 209.5H587.894L580.894 213H570.394L559.894 209.5L556.394 203.5H552.894V209.5L549.894 211L543.894 207.5L538.394 206Z" fill="#C4C4C4"/>
<path d="M589.394 0.5L595.394 -3L625.894 -4L622.394 5.5L601.894 0.5L619.894 9L617.394 12L613.394 10.5V9H609.394V10.5H606.394V7.5L609.394 5.5L595.394 0.5H589.394Z" fill="#C4C4C4"/>
<path d="M622.394 10.5L624.394 7.5L628.394 5.5L662.394 31L657.394 32.5V37L648.894 28L647.394 31L638.394 21L637.394 28H640.894L643.394 31L647.394 35.5H651.894L657.394 41L660.394 39L665.894 42.5H670.394L688.394 64.5L693.394 103.5L684.894 135.5L681.894 139L677.894 146.5L674.394 150.5L672.394 153.5L670.394 157.5L665.894 162.5V164.5H658.894L653.894 167.5V164.5L657.394 160.5L658.894 150.5L660.394 146.5L662.394 142H660.394V129H663.394V123.5L665.894 120.5L663.394 119L665.894 114.5V107.5L663.394 103.5L660.394 101.5L662.394 97V90.5L655.894 87.5V84.5L651.894 81.5L647.394 83.5H643.394L640.394 81.5L638.394 83.5H631.894L628.394 80.5L625.894 76.5L622.394 73L619.894 70.5L617.394 68L615.394 64.5V62L617.394 58L615.394 54.5L613.394 49.5L615.394 45L622.394 37V32.5L628.394 31L633.394 28H637.394L633.394 18L631.394 22V25L628.394 28H617.394V22V19.5L619.894 16.5H624.394L619.894 13.5L622.394 10.5Z" fill="#C4C4C4"/>
</mask>
<g mask="url(#mask2)">
<circle cx="582.894" cy="110" r="110" fill="url(#paint1_radial)"/>
</g>
</g>
<path d="M48.9 78.65C54.2 78.65 58.95 80.1 63.15 83C67.45 85.9 70.8 90.15 73.2 95.75C75.6 101.35 76.8 108.05 76.8 115.85C76.8 123.55 75.55 130.75 73.05 137.45C70.65 144.15 66.85 149.6 61.65 153.8C56.55 158 50.15 160.1 42.45 160.1C38.65 160.1 35.2 159.35 32.1 157.85C29 156.35 26.6 154.4 24.9 152V171.2C24.9 175.3 26.1 178.1 28.5 179.6C30.9 181.2 34.5 182 39.3 182V185.15L35.85 185C26.55 184.7 20.5 184.55 17.7 184.55C15.3 184.55 9.9 184.75 1.5 185.15V182C5.2 182 7.75 181.3 9.15 179.9C10.65 178.6 11.4 176.2 11.4 172.7V97.1C11.4 92.5 10.55 89.15 8.85 87.05C7.15 84.95 4.2 83.9 0 83.9V80.75C3.1 81.05 6.2 81.2 9.3 81.2C15.6 81.2 20.8 80.5 24.9 79.1V95C27.1 89.8 30.3 85.8 34.5 83C38.7 80.1 43.5 78.65 48.9 78.65ZM40.8 156.65C55.1 156.65 62.25 143.75 62.25 117.95C62.25 94.75 56.45 83.15 44.85 83.15C40.35 83.15 36.3 84.8 32.7 88.1C29.1 91.3 26.5 95.95 24.9 102.05V147.05C26.3 149.95 28.35 152.3 31.05 154.1C33.75 155.8 37 156.65 40.8 156.65Z" fill="black"/>
<path d="M112.058 144.05C112.058 148.15 112.908 151 114.608 152.6C116.308 154.1 119.258 154.85 123.458 154.85V158C114.258 157.6 108.208 157.4 105.308 157.4C102.408 157.4 96.3582 157.6 87.1582 158V154.85C91.3582 154.85 94.3082 154.1 96.0082 152.6C97.7082 151 98.5582 148.15 98.5582 144.05V58.4C98.5582 53.8 97.7082 50.45 96.0082 48.35C94.3082 46.25 91.3582 45.2 87.1582 45.2V42.05C90.2582 42.35 93.3582 42.5 96.4582 42.5C102.758 42.5 107.958 41.8 112.058 40.4V144.05Z" fill="black"/>
<path d="M151.228 159.05C144.928 159.05 140.228 157.5 137.128 154.4C134.128 151.2 132.628 146.8 132.628 141.2C132.628 136.7 133.828 133 136.228 130.1C138.728 127.2 141.628 124.9 144.928 123.2C148.328 121.5 152.778 119.7 158.278 117.8C163.878 115.9 168.028 114.15 170.728 112.55C173.428 110.95 174.778 108.8 174.778 106.1V96.8C174.778 91 173.528 87.05 171.028 84.95C168.628 82.75 165.228 81.65 160.828 81.65C153.828 81.65 148.878 83.45 145.978 87.05C147.978 87.55 149.628 88.6 150.928 90.2C152.328 91.8 153.028 93.8 153.028 96.2C153.028 98.7 152.228 100.7 150.628 102.2C149.028 103.6 146.978 104.3 144.478 104.3C141.678 104.3 139.578 103.45 138.178 101.75C136.778 99.95 136.078 97.8 136.078 95.3C136.078 92.9 136.628 90.9 137.728 89.3C138.928 87.7 140.678 86.1 142.978 84.5C145.378 82.8 148.428 81.4 152.128 80.3C155.828 79.2 159.878 78.65 164.278 78.65C172.078 78.65 177.978 80.5 181.978 84.2C184.478 86.5 186.128 89.3 186.928 92.6C187.828 95.8 188.278 100.05 188.278 105.35V147.05C188.278 149.55 188.628 151.35 189.328 152.45C190.028 153.55 191.228 154.1 192.928 154.1C194.128 154.1 195.228 153.85 196.228 153.35C197.328 152.75 198.478 151.95 199.678 150.95L201.328 153.5C198.728 155.5 196.478 156.95 194.578 157.85C192.778 158.65 190.478 159.05 187.678 159.05C182.878 159.05 179.528 157.85 177.628 155.45C175.728 153.05 174.778 149.8 174.778 145.7C171.778 150.7 168.328 154.2 164.428 156.2C160.528 158.1 156.128 159.05 151.228 159.05ZM157.828 153.05C164.428 153.05 170.078 149.25 174.778 141.65V112.25C173.878 113.65 172.628 114.8 171.028 115.7C169.428 116.6 166.978 117.8 163.678 119.3C159.878 120.9 156.778 122.45 154.378 123.95C152.078 125.35 150.078 127.3 148.378 129.8C146.678 132.3 145.828 135.5 145.828 139.4C145.828 143.9 146.928 147.3 149.128 149.6C151.328 151.9 154.228 153.05 157.828 153.05Z" fill="black"/>
<path d="M256.235 78.65C263.235 78.65 268.535 80.55 272.135 84.35C274.035 86.35 275.385 88.85 276.185 91.85C276.985 94.85 277.385 98.9 277.385 104V144.05C277.385 148.15 278.235 151 279.935 152.6C281.635 154.1 284.585 154.85 288.785 154.85V158C279.585 157.6 273.585 157.4 270.785 157.4C267.985 157.4 262.385 157.6 253.985 158V154.85C257.685 154.85 260.235 154.1 261.635 152.6C263.135 151 263.885 148.15 263.885 144.05V100.7C263.885 95.1 263.085 90.85 261.485 87.95C259.885 84.95 256.635 83.45 251.735 83.45C247.635 83.45 243.985 84.65 240.785 87.05C237.585 89.45 235.085 92.75 233.285 96.95C231.585 101.05 230.735 105.65 230.735 110.75V144.05C230.735 148.15 231.435 151 232.835 152.6C234.335 154.1 236.935 154.85 240.635 154.85V158C232.235 157.6 226.635 157.4 223.835 157.4C221.035 157.4 215.035 157.6 205.835 158V154.85C210.035 154.85 212.985 154.1 214.685 152.6C216.385 151 217.235 148.15 217.235 144.05V97.1C217.235 92.5 216.385 89.15 214.685 87.05C212.985 84.95 210.035 83.9 205.835 83.9V80.75C209.035 81.05 212.135 81.2 215.135 81.2C221.435 81.2 226.635 80.5 230.735 79.1V96.8C233.235 90.4 236.685 85.8 241.085 83C245.585 80.1 250.635 78.65 256.235 78.65Z" fill="black"/>
<path d="M360.437 140C358.637 145.5 355.237 150.25 350.237 154.25C345.337 158.15 339.387 160.1 332.387 160.1C325.287 160.1 319.137 158.5 313.937 155.3C308.737 152 304.737 147.45 301.937 141.65C299.237 135.75 297.887 128.95 297.887 121.25C297.887 112.55 299.287 105 302.087 98.6C304.887 92.2 308.837 87.3 313.937 83.9C319.037 80.4 324.987 78.65 331.787 78.65C340.787 78.65 347.687 81.4 352.487 86.9C357.387 92.3 359.837 100.55 359.837 111.65H312.887C312.587 114.45 312.437 117.65 312.437 121.25C312.437 127.85 313.487 133.6 315.587 138.5C317.787 143.4 320.637 147.2 324.137 149.9C327.737 152.5 331.487 153.8 335.387 153.8C340.187 153.8 344.437 152.65 348.137 150.35C351.837 148.05 354.937 144.2 357.437 138.8L360.437 140ZM331.187 81.5C326.487 81.5 322.437 83.8 319.037 88.4C315.637 93 313.537 99.8 312.737 108.8H345.437C345.637 101 344.487 94.5 341.987 89.3C339.587 84.1 335.987 81.5 331.187 81.5Z" fill="black"/>
<path d="M395.366 80.9H417.566V83.9H395.366V141.95C395.366 146.45 396.166 149.7 397.766 151.7C399.466 153.7 401.866 154.7 404.966 154.7C408.066 154.7 410.716 153.45 412.916 150.95C415.116 148.45 416.966 144.35 418.466 138.65L421.466 139.4C418.966 153.2 412.466 160.1 401.966 160.1C398.566 160.1 395.766 159.7 393.566 158.9C391.366 158.1 389.416 156.85 387.716 155.15C385.516 152.95 383.966 150.25 383.066 147.05C382.266 143.85 381.866 139.55 381.866 134.15V83.9H367.466V80.9H381.866V57.95C387.466 57.75 391.966 57.05 395.366 55.85V80.9Z" fill="black"/>
<path d="M777.743 78.65C784.443 78.65 790.243 80.25 795.143 83.45C799.843 86.55 802.193 90.4 802.193 95C802.193 97.6 801.443 99.65 799.943 101.15C798.443 102.65 796.543 103.4 794.243 103.4C791.943 103.4 789.993 102.75 788.393 101.45C786.793 100.05 785.993 98.2 785.993 95.9C785.993 93.8 786.593 92.05 787.793 90.65C788.993 89.15 790.493 88.15 792.293 87.65C791.293 85.85 789.493 84.35 786.893 83.15C784.393 81.95 781.693 81.35 778.793 81.35C775.093 81.35 771.643 82.55 768.443 84.95C765.243 87.25 762.593 91.15 760.493 96.65C758.393 102.05 757.343 109.2 757.343 118.1C757.343 130.5 759.343 139.55 763.343 145.25C767.343 150.85 772.543 153.65 778.943 153.65C783.243 153.65 787.293 152.4 791.093 149.9C794.993 147.4 798.193 143.5 800.693 138.2L803.543 139.25C801.843 144.95 798.643 149.85 793.943 153.95C789.343 158.05 783.343 160.1 775.943 160.1C769.743 160.1 764.093 158.5 758.993 155.3C753.993 152.1 750.043 147.5 747.143 141.5C744.243 135.4 742.793 128.35 742.793 120.35C742.793 112.25 744.243 105.05 747.143 98.75C750.143 92.45 754.293 87.55 759.593 84.05C764.893 80.45 770.943 78.65 777.743 78.65Z" fill="black"/>
<path d="M837.043 144.05C837.043 148.15 837.893 151 839.593 152.6C841.293 154.1 844.243 154.85 848.443 154.85V158C839.243 157.6 833.193 157.4 830.293 157.4C827.393 157.4 821.343 157.6 812.143 158V154.85C816.343 154.85 819.293 154.1 820.993 152.6C822.693 151 823.543 148.15 823.543 144.05V58.4C823.543 53.8 822.693 50.45 820.993 48.35C819.293 46.25 816.343 45.2 812.143 45.2V42.05C815.243 42.35 818.343 42.5 821.443 42.5C827.743 42.5 832.943 41.8 837.043 40.4V144.05Z" fill="black"/>
<path d="M891.398 78.65C901.598 78.65 909.798 82.05 915.998 88.85C922.298 95.55 925.448 105.75 925.448 119.45C925.448 133.15 922.298 143.35 915.998 150.05C909.798 156.75 901.598 160.1 891.398 160.1C881.198 160.1 872.948 156.75 866.648 150.05C860.448 143.35 857.348 133.15 857.348 119.45C857.348 105.75 860.448 95.55 866.648 88.85C872.948 82.05 881.198 78.65 891.398 78.65ZM891.398 81.65C885.398 81.65 880.648 84.75 877.148 90.95C873.648 97.05 871.898 106.55 871.898 119.45C871.898 132.35 873.648 141.85 877.148 147.95C880.648 154.05 885.398 157.1 891.398 157.1C897.398 157.1 902.148 154.05 905.648 147.95C909.148 141.85 910.898 132.35 910.898 119.45C910.898 106.55 909.148 97.05 905.648 90.95C902.148 84.75 897.398 81.65 891.398 81.65Z" fill="black"/>
<path d="M928.576 183.95C934.676 183.65 939.275 181 942.375 176C945.575 171 947.175 164.05 947.175 155.15V97.1C947.175 92.5 946.325 89.15 944.625 87.05C942.925 84.95 939.975 83.9 935.775 83.9V80.75C938.875 81.05 941.976 81.2 945.076 81.2C951.375 81.2 956.575 80.5 960.675 79.1V140.75C960.675 157.35 957.075 169.45 949.875 177.05C947.175 179.85 943.975 182.05 940.275 183.65C936.675 185.35 932.776 186.2 928.576 186.2V183.95ZM952.576 43.25C955.176 43.25 957.426 44.2 959.326 46.1C961.226 48 962.175 50.25 962.175 52.85C962.175 55.45 961.226 57.7 959.326 59.6C957.426 61.5 955.176 62.45 952.576 62.45C949.976 62.45 947.726 61.5 945.826 59.6C943.926 57.7 942.975 55.45 942.975 52.85C942.975 50.25 943.926 48 945.826 46.1C947.726 44.2 949.976 43.25 952.576 43.25Z" fill="black"/>
<path d="M1044.92 141.8C1044.92 146.4 1045.77 149.75 1047.47 151.85C1049.17 153.95 1052.12 155 1056.32 155V158.15C1053.22 157.85 1050.12 157.7 1047.02 157.7C1040.72 157.7 1035.52 158.4 1031.42 159.8V142.1C1029.02 148.3 1025.62 152.85 1021.22 155.75C1016.82 158.65 1012.02 160.1 1006.82 160.1C1000.02 160.1 994.816 158.2 991.216 154.4C989.416 152.4 988.116 149.85 987.316 146.75C986.616 143.65 986.266 139.65 986.266 134.75V97.1C986.266 92.5 985.416 89.15 983.716 87.05C982.016 84.95 979.066 83.9 974.866 83.9V80.75C977.966 81.05 981.066 81.2 984.166 81.2C990.466 81.2 995.666 80.5 999.766 79.1V138.05C999.766 141.85 999.966 144.95 1000.37 147.35C1000.87 149.65 1001.92 151.55 1003.52 153.05C1005.22 154.55 1007.77 155.3 1011.17 155.3C1014.97 155.3 1018.42 154.1 1021.52 151.7C1024.62 149.3 1027.02 146.05 1028.72 141.95C1030.52 137.75 1031.42 133.15 1031.42 128.15V97.1C1031.42 92.5 1030.57 89.15 1028.87 87.05C1027.17 84.95 1024.22 83.9 1020.02 83.9V80.75C1023.12 81.05 1026.22 81.2 1029.32 81.2C1035.62 81.2 1040.82 80.5 1044.92 79.1V141.8Z" fill="black"/>
<path d="M1110.62 78.65C1114.62 78.65 1117.87 79.8 1120.37 82.1C1122.97 84.4 1124.27 87.2 1124.27 90.5C1124.27 93.1 1123.47 95.35 1121.87 97.25C1120.37 99.05 1118.32 99.95 1115.72 99.95C1113.52 99.95 1111.62 99.25 1110.02 97.85C1108.52 96.45 1107.77 94.55 1107.77 92.15C1107.77 88.85 1109.47 86.15 1112.87 84.05C1112.17 83.05 1111.12 82.55 1109.72 82.55C1105.82 82.55 1102.27 84.1 1099.07 87.2C1095.87 90.2 1093.37 93.9 1091.57 98.3C1089.77 102.7 1088.87 106.85 1088.87 110.75V142.55C1088.87 147.15 1090.17 150.35 1092.77 152.15C1095.47 153.95 1099.47 154.85 1104.77 154.85V158L1101.17 157.85C1090.97 157.55 1084.47 157.4 1081.67 157.4C1079.07 157.4 1073.17 157.6 1063.97 158V154.85C1068.17 154.85 1071.12 154.1 1072.82 152.6C1074.52 151 1075.37 148.15 1075.37 144.05V97.1C1075.37 92.5 1074.52 89.15 1072.82 87.05C1071.12 84.95 1068.17 83.9 1063.97 83.9V80.75C1067.17 81.05 1070.27 81.2 1073.27 81.2C1079.57 81.2 1084.77 80.5 1088.87 79.1V97.85C1090.67 92.85 1093.52 88.4 1097.42 84.5C1101.42 80.6 1105.82 78.65 1110.62 78.65Z" fill="black"/>
<path d="M1192.94 140C1191.14 145.5 1187.74 150.25 1182.74 154.25C1177.84 158.15 1171.89 160.1 1164.89 160.1C1157.79 160.1 1151.64 158.5 1146.44 155.3C1141.24 152 1137.24 147.45 1134.44 141.65C1131.74 135.75 1130.39 128.95 1130.39 121.25C1130.39 112.55 1131.79 105 1134.59 98.6C1137.39 92.2 1141.34 87.3 1146.44 83.9C1151.54 80.4 1157.49 78.65 1164.29 78.65C1173.29 78.65 1180.19 81.4 1184.99 86.9C1189.89 92.3 1192.34 100.55 1192.34 111.65H1145.39C1145.09 114.45 1144.94 117.65 1144.94 121.25C1144.94 127.85 1145.99 133.6 1148.09 138.5C1150.29 143.4 1153.14 147.2 1156.64 149.9C1160.24 152.5 1163.99 153.8 1167.89 153.8C1172.69 153.8 1176.94 152.65 1180.64 150.35C1184.34 148.05 1187.44 144.2 1189.94 138.8L1192.94 140ZM1163.69 81.5C1158.99 81.5 1154.94 83.8 1151.54 88.4C1148.14 93 1146.04 99.8 1145.24 108.8H1177.94C1178.14 101 1176.99 94.5 1174.49 89.3C1172.09 84.1 1168.49 81.5 1163.69 81.5Z" fill="black"/>
<defs>
<radialGradient id="paint0_radial" cx="0" cy="0" r="1" gradientUnits="userSpaceOnUse" gradientTransform="translate(539.394 75) rotate(63.6037) scale(151.83)">
<stop offset="0.0293395" stop-color="#DAFDFE"/>
<stop offset="0.263486" stop-color="#74D8E7"/>
<stop offset="0.777806" stop-color="#03206B"/>
<stop offset="0.873675" stop-color="#05226D"/>
<stop offset="1" stop-color="#195DAF"/>
</radialGradient>
<radialGradient id="paint1_radial" cx="0" cy="0" r="1" gradientUnits="userSpaceOnUse" gradientTransform="translate(539.394 75) rotate(52.125) scale(165.325)">
<stop offset="0.0293395" stop-color="#E9FED9"/>
<stop offset="0.263486" stop-color="#B0E46D"/>
<stop offset="0.630402" stop-color="#699A2B"/>
<stop offset="0.796875" stop-color="#324D10"/>
<stop offset="0.880208" stop-color="#375513"/>
<stop offset="1" stop-color="#29D326"/>
</radialGradient>
</defs>
</svg>
