<svg width="600" height="200" viewBox="0 0 600 200" fill="none" xmlns="http://www.w3.org/2000/svg">
<rect width="845" height="409" transform="translate(-123 -109)" fill="white"/>
<path d="M558 14L479.5 27.5L479 85.9999L558 72V14Z" fill="#FFD23F"/>
<path d="M90.1238 172.494V165.274C87.047 171.126 82.2434 174.482 75.7131 175.342C72.3224 175.788 69.1828 175.568 66.2944 174.682C63.4688 173.724 61.0199 172.209 58.9478 170.139C56.8757 168.068 55.2431 165.56 54.0501 162.614C52.9198 159.596 52.3547 156.219 52.3547 152.482C52.3547 148.872 52.8884 145.413 53.9559 142.106C55.0233 138.799 56.5303 135.877 58.4769 133.341C60.4234 130.741 62.7153 128.603 65.3525 126.926C68.0526 125.24 70.9724 124.191 74.1119 123.777C77.6283 123.315 80.7678 123.725 83.5307 125.007C86.2935 126.29 88.4598 128.222 90.0296 130.802V103.157L105.1 101.173V170.523L90.1238 172.494ZM90.1238 143.234C89.1819 140.762 87.6435 138.874 85.5086 137.572C83.3737 136.27 81.176 135.767 78.9155 136.065C77.2829 136.28 75.8073 136.854 74.4887 137.788C73.1701 138.658 72.0084 139.761 71.0038 141.097C69.9991 142.432 69.2142 143.961 68.6491 145.682C68.1467 147.331 67.8956 149.011 67.8956 150.721C67.8956 152.558 68.1781 154.23 68.7433 155.739C69.3712 157.24 70.1875 158.494 71.1921 159.502C72.2596 160.501 73.5154 161.223 74.9596 161.666C76.4038 162.109 77.9736 162.219 79.669 161.996C81.8667 161.707 83.9074 160.836 85.7912 159.385C87.6749 157.87 89.1191 155.97 90.1238 153.684V143.234ZM135.96 167.41C132.569 167.856 129.43 167.636 126.541 166.75C123.716 165.792 121.267 164.278 119.195 162.207C117.122 160.137 115.49 157.628 114.297 154.682C113.167 151.664 112.601 148.287 112.601 144.55C112.601 140.94 113.135 137.482 114.203 134.174C115.333 130.859 116.871 127.933 118.818 125.397C120.764 122.797 123.056 120.659 125.693 118.982C128.393 117.296 131.313 116.247 134.453 115.833C137.969 115.37 141.109 115.78 143.872 117.063C146.697 118.338 148.864 120.27 150.371 122.858V115.353L165.44 113.369V162.579L150.465 164.55V157.14C148.958 160.062 147.011 162.408 144.625 164.179C142.302 165.878 139.413 166.955 135.96 167.41ZM150.465 135.385C149.397 132.866 147.859 130.947 145.85 129.628C143.84 128.309 141.642 127.807 139.256 128.121C137.624 128.336 136.117 128.914 134.735 129.856C133.417 130.726 132.255 131.861 131.25 133.26C130.309 134.587 129.555 136.08 128.99 137.738C128.425 139.395 128.142 141.079 128.142 142.789C128.142 144.626 128.425 146.299 128.99 147.808C129.618 149.245 130.434 150.467 131.439 151.475C132.506 152.475 133.762 153.228 135.206 153.734C136.651 154.177 138.22 154.287 139.916 154.064C142.239 153.758 144.248 152.892 145.944 151.466C147.702 149.967 149.209 148.059 150.465 145.74V135.385ZM180.475 160.599V124.404L173.034 125.384V111.704L180.475 110.724V94.8595L195.922 92.8259V108.691L207.318 107.19V120.87L195.922 122.371V158.566L180.475 160.599ZM232.631 154.683C229.24 155.129 226.1 154.909 223.212 154.023C220.386 153.065 217.937 151.551 215.865 149.48C213.793 147.41 212.161 144.901 210.968 141.955C209.837 138.937 209.272 135.56 209.272 131.823C209.272 128.213 209.806 124.755 210.873 121.447C212.004 118.132 213.542 115.206 215.488 112.67C217.435 110.07 219.727 107.932 222.364 106.255C225.064 104.569 227.984 103.52 231.124 103.106C234.64 102.644 237.779 103.054 240.542 104.336C243.368 105.611 245.534 107.543 247.041 110.131V102.626L262.111 100.642V149.852L247.135 151.823V144.413C245.628 147.335 243.682 149.681 241.296 151.452C238.973 153.151 236.084 154.228 232.631 154.683ZM247.135 122.658C246.068 120.139 244.53 118.22 242.52 116.901C240.511 115.582 238.313 115.08 235.927 115.394C234.295 115.609 232.788 116.187 231.406 117.129C230.088 118 228.926 119.134 227.921 120.533C226.979 121.86 226.226 123.353 225.661 125.011C225.096 126.668 224.813 128.352 224.813 130.062C224.813 131.899 225.096 133.572 225.661 135.081C226.289 136.518 227.105 137.741 228.11 138.748C229.177 139.748 230.433 140.501 231.877 141.007C233.321 141.45 234.891 141.56 236.586 141.337C238.91 141.031 240.919 140.165 242.614 138.739C244.373 137.241 245.88 135.332 247.135 133.013V122.658ZM320.095 142.218L305.025 144.202V116.177C305.025 112.947 304.397 110.655 303.142 109.3C301.886 107.945 300.159 107.413 297.961 107.702C297.082 107.818 296.109 108.168 295.041 108.752C294.037 109.264 293.032 109.998 292.027 110.953C291.086 111.837 290.206 112.871 289.39 114.056C288.574 115.24 287.946 116.526 287.506 117.914V146.509L272.436 148.493V79.1425L287.506 77.1585V104.994C289.327 101.777 291.713 99.183 294.665 97.2111C297.679 95.1677 300.975 93.9103 304.554 93.4391C307.882 93.001 310.551 93.2513 312.56 94.1901C314.632 95.0573 316.202 96.339 317.27 98.0351C318.4 99.6597 319.153 101.587 319.53 103.818C319.907 105.985 320.095 108.145 320.095 110.298V142.218ZM330.108 140.9V91.025L345.178 89.041V138.916L330.108 140.9ZM330.108 85.325V71.55L345.178 69.566V83.341L330.108 85.325ZM388.742 133.181L375.839 114.834L370.564 121.039V135.574L355.494 137.558V68.2078L370.564 66.2238V106.409L387.235 83.504L403.247 81.396L385.446 105.21L404.754 131.073L388.742 133.181ZM430.184 128.675C426.04 129.22 422.304 129.047 418.976 128.155C415.711 127.192 412.916 125.691 410.593 123.654C408.333 121.608 406.606 119.144 405.413 116.261C404.22 113.315 403.623 110.163 403.623 106.806C403.623 103.196 404.22 99.7296 405.413 96.4059C406.606 93.0188 408.333 89.9731 410.593 87.2689C412.853 84.5646 415.616 82.3009 418.881 80.4777C422.209 78.6462 425.977 77.4536 430.184 76.8997C434.391 76.3458 438.127 76.5506 441.392 77.5141C444.657 78.4776 447.42 80.0138 449.681 82.1229C451.941 84.1686 453.637 86.6688 454.767 89.6233C455.96 92.5696 456.556 95.7527 456.556 99.1727C456.556 100.059 456.525 100.95 456.462 101.845C456.399 102.677 456.305 103.417 456.18 104.067L419.635 108.878C419.886 112.202 421.079 114.61 423.214 116.102C425.412 117.523 427.892 118.051 430.655 117.688C432.853 117.398 434.956 116.583 436.965 115.242C439.038 113.892 440.419 112.254 441.11 110.326L453.919 112.25C451.973 116.433 448.959 120.028 444.877 123.035C440.796 126.043 435.898 127.922 430.184 128.675ZM440.639 96.7083C440.325 93.583 439.195 91.2301 437.248 89.6497C435.301 88.0693 432.884 87.4692 429.996 87.8495C427.044 88.238 424.596 89.5104 422.649 91.6667C420.765 93.7514 419.666 96.366 419.352 99.5107L440.639 96.7083Z" fill="black"/>
<path d="M486 122.5L474 124.5V28.3652L486 26.3652V122.5Z" fill="#540D6E"/>
</svg>
