<svg width="2000" height="1522" viewBox="0 0 2000 1522" fill="none" xmlns="http://www.w3.org/2000/svg">
<path d="M174.9 1275.8C174.9 1262.8 177.1 1251.6 181.5 1242.2C185.9 1232.8 191.6 1225.1 198.6 1219.1C205.8 1212.9 214 1208.4 223.2 1205.6C232.4 1202.6 241.8 1201.1 251.4 1201.1C262.4 1201.1 272.2 1202.5 280.8 1205.3C289.6 1207.9 295.9 1210.9 299.7 1214.3C298.3 1217.3 297 1220.5 295.8 1223.9C294.8 1227.1 293.9 1230.5 293.1 1234.1H290.7C289.3 1231.5 287.4 1228.9 285 1226.3C282.6 1223.5 279.7 1221 276.3 1218.8C273.1 1216.4 269.5 1214.5 265.5 1213.1C261.5 1211.5 257.1 1210.7 252.3 1210.7C243.3 1210.7 235.5 1212.4 228.9 1215.8C222.5 1219 217.2 1223.5 213 1229.3C209 1235.1 206 1242 204 1250C202.2 1257.8 201.3 1266.3 201.3 1275.5C201.3 1296.1 205.7 1311.7 214.5 1322.3C223.3 1332.7 236.2 1337.9 253.2 1337.9C257.2 1337.9 261.3 1337.4 265.5 1336.4C269.7 1335.2 273.8 1333.7 277.8 1331.9C281.8 1329.9 285.5 1327.6 288.9 1325C292.5 1322.4 295.6 1319.6 298.2 1316.6L299.7 1317.5C298.7 1322.3 298.1 1327.2 297.9 1332.2C291.9 1337 284.4 1341.1 275.4 1344.5C266.6 1347.9 257.4 1349.6 247.8 1349.6C239.2 1349.6 230.5 1348.4 221.7 1346C213.1 1343.4 205.3 1339.2 198.3 1333.4C191.3 1327.4 185.6 1319.7 181.2 1310.3C177 1300.9 174.9 1289.4 174.9 1275.8Z" fill="black"/>
<path d="M342.9 1206.8C342.9 1200 342.8 1192.6 342.6 1184.6C342.6 1176.6 342.5 1168.7 342.3 1160.9C342.1 1153.1 341.8 1145.7 341.4 1138.7C341.2 1131.5 340.9 1125.4 340.5 1120.4C346.1 1121.4 350.6 1121.9 354 1121.9C357.4 1121.9 361.9 1121.4 367.5 1120.4C367.1 1125.4 366.7 1131.5 366.3 1138.7C366.1 1145.7 365.9 1153.1 365.7 1160.9C365.5 1168.7 365.3 1176.6 365.1 1184.6C365.1 1192.6 365.1 1200 365.1 1206.8V1261.1C365.1 1267.9 365.1 1275.3 365.1 1283.3C365.3 1291.3 365.5 1299.2 365.7 1307C365.9 1314.8 366.1 1322.2 366.3 1329.2C366.7 1336.2 367.1 1342 367.5 1346.6C362.9 1346.2 358.4 1346 354 1346C349.6 1346 345.1 1346.2 340.5 1346.6C340.9 1342 341.2 1336.2 341.4 1329.2C341.8 1322.2 342.1 1314.8 342.3 1307C342.5 1299.2 342.6 1291.3 342.6 1283.3C342.8 1275.3 342.9 1267.9 342.9 1261.1V1206.8Z" fill="black"/>
<path d="M422.196 1151.9C422.196 1147.7 423.696 1144.1 426.696 1141.1C429.696 1138.1 433.296 1136.6 437.496 1136.6C441.696 1136.6 445.296 1138.1 448.296 1141.1C451.296 1144.1 452.796 1147.7 452.796 1151.9C452.796 1156.1 451.296 1159.7 448.296 1162.7C445.296 1165.7 441.696 1167.2 437.496 1167.2C433.296 1167.2 429.696 1165.7 426.696 1162.7C423.696 1159.7 422.196 1156.1 422.196 1151.9ZM426.396 1272.2C426.396 1266.2 426.296 1260.1 426.096 1253.9C426.096 1247.7 425.996 1241.6 425.796 1235.6C425.796 1229.6 425.596 1223.9 425.196 1218.5C424.996 1213.1 424.596 1208.3 423.996 1204.1C429.596 1205.1 434.096 1205.6 437.496 1205.6C440.896 1205.6 445.396 1205.1 450.996 1204.1C449.996 1212.7 449.296 1222 448.896 1232C448.696 1241.8 448.596 1251.2 448.596 1260.2V1291.4C448.596 1303 448.796 1314.5 449.196 1325.9C449.596 1337.3 449.796 1348.5 449.796 1359.5C449.796 1367.9 449.296 1375.6 448.296 1382.6C447.496 1389.8 444.796 1396.8 440.196 1403.6C435.796 1410 429.796 1415.3 422.196 1419.5C414.796 1423.7 406.296 1426 396.696 1426.4L395.496 1416.2C395.696 1416.4 396.096 1416.5 396.696 1416.5C397.496 1416.7 398.396 1416.8 399.396 1416.8C405.196 1416.8 409.796 1415.1 413.196 1411.7C416.796 1408.3 419.596 1403.9 421.596 1398.5C423.596 1393.1 424.896 1387 425.496 1380.2C426.096 1373.6 426.396 1367 426.396 1360.4V1272.2Z" fill="black"/>
<path d="M566.593 1267.4V1286H491.893V1267.4H566.593Z" fill="black"/>
<path d="M591.795 1275.8C591.795 1262.8 593.995 1251.6 598.395 1242.2C602.795 1232.8 608.495 1225.1 615.495 1219.1C622.695 1212.9 630.895 1208.4 640.095 1205.6C649.295 1202.6 658.695 1201.1 668.295 1201.1C679.295 1201.1 689.095 1202.5 697.695 1205.3C706.495 1207.9 712.795 1210.9 716.595 1214.3C715.195 1217.3 713.895 1220.5 712.695 1223.9C711.695 1227.1 710.795 1230.5 709.995 1234.1H707.595C706.195 1231.5 704.295 1228.9 701.895 1226.3C699.495 1223.5 696.595 1221 693.195 1218.8C689.995 1216.4 686.395 1214.5 682.395 1213.1C678.395 1211.5 673.995 1210.7 669.195 1210.7C660.195 1210.7 652.395 1212.4 645.795 1215.8C639.395 1219 634.095 1223.5 629.895 1229.3C625.895 1235.1 622.895 1242 620.895 1250C619.095 1257.8 618.195 1266.3 618.195 1275.5C618.195 1296.1 622.595 1311.7 631.395 1322.3C640.195 1332.7 653.095 1337.9 670.095 1337.9C674.095 1337.9 678.195 1337.4 682.395 1336.4C686.595 1335.2 690.695 1333.7 694.695 1331.9C698.695 1329.9 702.395 1327.6 705.795 1325C709.395 1322.4 712.495 1319.6 715.095 1316.6L716.595 1317.5C715.595 1322.3 714.995 1327.2 714.795 1332.2C708.795 1337 701.295 1341.1 692.295 1344.5C683.495 1347.9 674.295 1349.6 664.695 1349.6C656.095 1349.6 647.395 1348.4 638.595 1346C629.995 1343.4 622.195 1339.2 615.195 1333.4C608.195 1327.4 602.495 1319.7 598.095 1310.3C593.895 1300.9 591.795 1289.4 591.795 1275.8Z" fill="black"/>
<path d="M766.095 1275.8C766.095 1284.2 766.795 1292.3 768.195 1300.1C769.795 1307.9 772.395 1314.9 775.995 1321.1C779.595 1327.1 784.395 1331.9 790.395 1335.5C796.395 1339.1 803.795 1340.9 812.595 1340.9C821.395 1340.9 828.795 1339.1 834.795 1335.5C840.795 1331.9 845.595 1327.1 849.195 1321.1C852.795 1314.9 855.295 1307.9 856.695 1300.1C858.295 1292.3 859.095 1284.2 859.095 1275.8C859.095 1267.4 858.295 1259.3 856.695 1251.5C855.295 1243.7 852.795 1236.8 849.195 1230.8C845.595 1224.6 840.795 1219.7 834.795 1216.1C828.795 1212.5 821.395 1210.7 812.595 1210.7C803.795 1210.7 796.395 1212.5 790.395 1216.1C784.395 1219.7 779.595 1224.6 775.995 1230.8C772.395 1236.8 769.795 1243.7 768.195 1251.5C766.795 1259.3 766.095 1267.4 766.095 1275.8ZM739.695 1275.8C739.695 1262.2 741.795 1250.7 745.995 1241.3C750.395 1231.7 756.095 1224 763.095 1218.2C770.095 1212.2 777.895 1207.9 786.495 1205.3C795.295 1202.5 803.995 1201.1 812.595 1201.1C821.395 1201.1 830.095 1202.5 838.695 1205.3C847.295 1207.9 855.095 1212.2 862.095 1218.2C869.095 1224 874.695 1231.7 878.895 1241.3C883.295 1250.7 885.495 1262.2 885.495 1275.8C885.495 1289.4 883.295 1301 878.895 1310.6C874.695 1320 869.095 1327.7 862.095 1333.7C855.095 1339.5 847.295 1343.6 838.695 1346C830.095 1348.4 821.395 1349.6 812.595 1349.6C803.995 1349.6 795.295 1348.4 786.495 1346C777.895 1343.6 770.095 1339.5 763.095 1333.7C756.095 1327.7 750.395 1320 745.995 1310.6C741.795 1301 739.695 1289.4 739.695 1275.8Z" fill="black"/>
<path d="M919.294 1260.2C919.294 1251.2 919.094 1241.8 918.694 1232C918.494 1222 917.894 1212.7 916.894 1204.1C922.494 1205.1 926.994 1205.6 930.394 1205.6C931.994 1205.6 933.694 1205.5 935.494 1205.3C937.494 1204.9 939.794 1204.5 942.394 1204.1C941.794 1212.1 941.494 1220.1 941.494 1228.1H942.094C952.694 1210.1 967.594 1201.1 986.794 1201.1C991.794 1201.1 996.694 1201.9 1001.49 1203.5C1006.29 1204.9 1010.59 1206.9 1014.39 1209.5C1018.39 1212.1 1021.79 1215.3 1024.59 1219.1C1027.39 1222.7 1029.29 1226.6 1030.29 1230.8H1030.89C1035.69 1221.2 1042.19 1213.9 1050.39 1208.9C1058.79 1203.7 1068.39 1201.1 1079.19 1201.1C1085.79 1201.1 1091.89 1202 1097.49 1203.8C1103.09 1205.6 1107.89 1208.4 1111.89 1212.2C1116.09 1216 1119.29 1220.9 1121.49 1226.9C1123.89 1232.9 1125.09 1240.1 1125.09 1248.5C1125.09 1251.9 1124.99 1255.6 1124.79 1259.6C1124.59 1263.6 1124.39 1268.3 1124.19 1273.7C1123.99 1278.9 1123.79 1284.9 1123.59 1291.7C1123.39 1298.3 1123.29 1306 1123.29 1314.8C1123.29 1320.2 1123.29 1325.4 1123.29 1330.4C1123.49 1335.4 1123.79 1340.8 1124.19 1346.6C1121.99 1346.2 1119.79 1346 1117.59 1346C1115.39 1346 1113.29 1346 1111.29 1346C1109.09 1346 1106.89 1346 1104.69 1346C1102.49 1346 1100.29 1346.2 1098.09 1346.6C1098.69 1341.6 1099.29 1331.5 1099.89 1316.3C1100.69 1301.1 1101.09 1279.9 1101.09 1252.7C1101.09 1247.7 1100.49 1243 1099.29 1238.6C1098.29 1234.2 1096.59 1230.4 1094.19 1227.2C1091.79 1224 1088.59 1221.5 1084.59 1219.7C1080.59 1217.7 1075.59 1216.7 1069.59 1216.7C1062.39 1216.7 1056.29 1218.1 1051.29 1220.9C1046.29 1223.7 1042.39 1227 1039.59 1230.8C1037.99 1233 1036.69 1235.2 1035.69 1237.4C1034.89 1239.6 1034.19 1243 1033.59 1247.6C1033.19 1252 1032.89 1258.3 1032.69 1266.5C1032.49 1274.5 1032.39 1285.6 1032.39 1299.8C1032.39 1308.4 1032.49 1316.3 1032.69 1323.5C1033.09 1330.5 1033.49 1338.2 1033.89 1346.6C1029.29 1346.2 1024.89 1346 1020.69 1346C1016.49 1346 1012.09 1346.2 1007.49 1346.6C1008.49 1335.6 1009.19 1324.4 1009.59 1313C1009.99 1301.6 1010.19 1290.4 1010.19 1279.4C1010.19 1270 1010.09 1262.7 1009.89 1257.5C1009.89 1252.1 1009.69 1247.9 1009.29 1244.9C1008.89 1241.7 1008.29 1239.1 1007.49 1237.1C1006.89 1235.1 1005.99 1232.9 1004.79 1230.5C1002.59 1226.7 999.094 1223.5 994.294 1220.9C989.694 1218.1 984.894 1216.7 979.894 1216.7C966.694 1216.7 956.994 1221 950.794 1229.6C944.594 1238.2 941.494 1250.3 941.494 1265.9V1291.4C941.494 1300.4 941.594 1309.9 941.794 1319.9C942.194 1329.7 942.894 1338.6 943.894 1346.6C939.294 1346.2 934.794 1346 930.394 1346C925.994 1346 921.494 1346.2 916.894 1346.6C917.894 1338.6 918.494 1329.7 918.694 1319.9C919.094 1309.9 919.294 1300.4 919.294 1291.4V1260.2Z" fill="black"/>
<path d="M1169.2 1260.2C1169.2 1251.2 1169 1241.8 1168.6 1232C1168.4 1222 1167.8 1212.7 1166.8 1204.1C1172.4 1205.1 1176.9 1205.6 1180.3 1205.6C1181.9 1205.6 1183.6 1205.5 1185.4 1205.3C1187.4 1204.9 1189.7 1204.5 1192.3 1204.1C1191.7 1212.1 1191.4 1220.1 1191.4 1228.1H1192C1202.6 1210.1 1217.5 1201.1 1236.7 1201.1C1241.7 1201.1 1246.6 1201.9 1251.4 1203.5C1256.2 1204.9 1260.5 1206.9 1264.3 1209.5C1268.3 1212.1 1271.7 1215.3 1274.5 1219.1C1277.3 1222.7 1279.2 1226.6 1280.2 1230.8H1280.8C1285.6 1221.2 1292.1 1213.9 1300.3 1208.9C1308.7 1203.7 1318.3 1201.1 1329.1 1201.1C1335.7 1201.1 1341.8 1202 1347.4 1203.8C1353 1205.6 1357.8 1208.4 1361.8 1212.2C1366 1216 1369.2 1220.9 1371.4 1226.9C1373.8 1232.9 1375 1240.1 1375 1248.5C1375 1251.9 1374.9 1255.6 1374.7 1259.6C1374.5 1263.6 1374.3 1268.3 1374.1 1273.7C1373.9 1278.9 1373.7 1284.9 1373.5 1291.7C1373.3 1298.3 1373.2 1306 1373.2 1314.8C1373.2 1320.2 1373.2 1325.4 1373.2 1330.4C1373.4 1335.4 1373.7 1340.8 1374.1 1346.6C1371.9 1346.2 1369.7 1346 1367.5 1346C1365.3 1346 1363.2 1346 1361.2 1346C1359 1346 1356.8 1346 1354.6 1346C1352.4 1346 1350.2 1346.2 1348 1346.6C1348.6 1341.6 1349.2 1331.5 1349.8 1316.3C1350.6 1301.1 1351 1279.9 1351 1252.7C1351 1247.7 1350.4 1243 1349.2 1238.6C1348.2 1234.2 1346.5 1230.4 1344.1 1227.2C1341.7 1224 1338.5 1221.5 1334.5 1219.7C1330.5 1217.7 1325.5 1216.7 1319.5 1216.7C1312.3 1216.7 1306.2 1218.1 1301.2 1220.9C1296.2 1223.7 1292.3 1227 1289.5 1230.8C1287.9 1233 1286.6 1235.2 1285.6 1237.4C1284.8 1239.6 1284.1 1243 1283.5 1247.6C1283.1 1252 1282.8 1258.3 1282.6 1266.5C1282.4 1274.5 1282.3 1285.6 1282.3 1299.8C1282.3 1308.4 1282.4 1316.3 1282.6 1323.5C1283 1330.5 1283.4 1338.2 1283.8 1346.6C1279.2 1346.2 1274.8 1346 1270.6 1346C1266.4 1346 1262 1346.2 1257.4 1346.6C1258.4 1335.6 1259.1 1324.4 1259.5 1313C1259.9 1301.6 1260.1 1290.4 1260.1 1279.4C1260.1 1270 1260 1262.7 1259.8 1257.5C1259.8 1252.1 1259.6 1247.9 1259.2 1244.9C1258.8 1241.7 1258.2 1239.1 1257.4 1237.1C1256.8 1235.1 1255.9 1232.9 1254.7 1230.5C1252.5 1226.7 1249 1223.5 1244.2 1220.9C1239.6 1218.1 1234.8 1216.7 1229.8 1216.7C1216.6 1216.7 1206.9 1221 1200.7 1229.6C1194.5 1238.2 1191.4 1250.3 1191.4 1265.9V1291.4C1191.4 1300.4 1191.5 1309.9 1191.7 1319.9C1192.1 1329.7 1192.8 1338.6 1193.8 1346.6C1189.2 1346.2 1184.7 1346 1180.3 1346C1175.9 1346 1171.4 1346.2 1166.8 1346.6C1167.8 1338.6 1168.4 1329.7 1168.6 1319.9C1169 1309.9 1169.2 1300.4 1169.2 1291.4V1260.2Z" fill="black"/>
<path d="M1432.6 1275.8C1432.6 1284.2 1433.3 1292.3 1434.7 1300.1C1436.3 1307.9 1438.9 1314.9 1442.5 1321.1C1446.1 1327.1 1450.9 1331.9 1456.9 1335.5C1462.9 1339.1 1470.3 1340.9 1479.1 1340.9C1487.9 1340.9 1495.3 1339.1 1501.3 1335.5C1507.3 1331.9 1512.1 1327.1 1515.7 1321.1C1519.3 1314.9 1521.8 1307.9 1523.2 1300.1C1524.8 1292.3 1525.6 1284.2 1525.6 1275.8C1525.6 1267.4 1524.8 1259.3 1523.2 1251.5C1521.8 1243.7 1519.3 1236.8 1515.7 1230.8C1512.1 1224.6 1507.3 1219.7 1501.3 1216.1C1495.3 1212.5 1487.9 1210.7 1479.1 1210.7C1470.3 1210.7 1462.9 1212.5 1456.9 1216.1C1450.9 1219.7 1446.1 1224.6 1442.5 1230.8C1438.9 1236.8 1436.3 1243.7 1434.7 1251.5C1433.3 1259.3 1432.6 1267.4 1432.6 1275.8ZM1406.2 1275.8C1406.2 1262.2 1408.3 1250.7 1412.5 1241.3C1416.9 1231.7 1422.6 1224 1429.6 1218.2C1436.6 1212.2 1444.4 1207.9 1453 1205.3C1461.8 1202.5 1470.5 1201.1 1479.1 1201.1C1487.9 1201.1 1496.6 1202.5 1505.2 1205.3C1513.8 1207.9 1521.6 1212.2 1528.6 1218.2C1535.6 1224 1541.2 1231.7 1545.4 1241.3C1549.8 1250.7 1552 1262.2 1552 1275.8C1552 1289.4 1549.8 1301 1545.4 1310.6C1541.2 1320 1535.6 1327.7 1528.6 1333.7C1521.6 1339.5 1513.8 1343.6 1505.2 1346C1496.6 1348.4 1487.9 1349.6 1479.1 1349.6C1470.5 1349.6 1461.8 1348.4 1453 1346C1444.4 1343.6 1436.6 1339.5 1429.6 1333.7C1422.6 1327.7 1416.9 1320 1412.5 1310.6C1408.3 1301 1406.2 1289.4 1406.2 1275.8Z" fill="black"/>
<path d="M1683 1262.3C1683 1247.3 1680.1 1236 1674.3 1228.4C1668.5 1220.6 1660.5 1216.7 1650.3 1216.7C1636.3 1216.7 1626 1221 1619.4 1229.6C1613 1238.2 1609.8 1250.3 1609.8 1265.9V1291.4C1609.8 1300.4 1609.9 1309.9 1610.1 1319.9C1610.5 1329.7 1611.2 1338.6 1612.2 1346.6C1607.6 1346.2 1603.1 1346 1598.7 1346C1594.3 1346 1589.8 1346.2 1585.2 1346.6C1586.2 1338.6 1586.8 1329.7 1587 1319.9C1587.4 1309.9 1587.6 1300.4 1587.6 1291.4V1260.2C1587.6 1251.2 1587.4 1241.8 1587 1232C1586.8 1222 1586.2 1212.7 1585.2 1204.1C1590.8 1205.1 1595.3 1205.6 1598.7 1205.6C1600.3 1205.6 1602 1205.5 1603.8 1205.3C1605.8 1204.9 1608.1 1204.5 1610.7 1204.1C1610.1 1212.1 1609.8 1220.1 1609.8 1228.1H1610.4C1616 1219.5 1622.7 1212.9 1630.5 1208.3C1638.3 1203.5 1647.6 1201.1 1658.4 1201.1C1664 1201.1 1669.6 1201.9 1675.2 1203.5C1681 1205.1 1686.2 1207.9 1690.8 1211.9C1695.4 1215.7 1699.1 1221 1701.9 1227.8C1704.9 1234.4 1706.4 1242.9 1706.4 1253.3C1706.4 1261.9 1706.2 1270.8 1705.8 1280C1705.4 1289 1705.2 1298.6 1705.2 1308.8V1328.3C1705.2 1331.5 1705.2 1334.7 1705.2 1337.9C1705.4 1340.9 1705.6 1343.8 1705.8 1346.6C1701.8 1346.2 1697.6 1346 1693.2 1346C1689 1346 1684.9 1346.2 1680.9 1346.6C1681.3 1336.2 1681.7 1325.5 1682.1 1314.5C1682.7 1303.5 1683 1292.2 1683 1280.6V1262.3Z" fill="black"/>
<path d="M1750.4 1318.7C1751.4 1320.7 1752.9 1322.9 1754.9 1325.3C1757.1 1327.7 1759.6 1330 1762.4 1332.2C1765.4 1334.2 1768.7 1335.9 1772.3 1337.3C1776.1 1338.7 1780.1 1339.4 1784.3 1339.4C1788.1 1339.4 1791.7 1338.8 1795.1 1337.6C1798.7 1336.4 1801.8 1334.7 1804.4 1332.5C1807.2 1330.3 1809.4 1327.5 1811 1324.1C1812.6 1320.7 1813.4 1316.8 1813.4 1312.4C1813.4 1306.2 1811.6 1301.5 1808 1298.3C1804.6 1294.9 1800.3 1292.2 1795.1 1290.2C1789.9 1288 1784.2 1286.1 1778 1284.5C1771.8 1282.9 1766.1 1280.7 1760.9 1277.9C1755.7 1274.9 1751.3 1271 1747.7 1266.2C1744.3 1261.4 1742.6 1254.8 1742.6 1246.4C1742.6 1239.8 1743.7 1233.8 1745.9 1228.4C1748.1 1222.8 1751.3 1218 1755.5 1214C1759.7 1210 1764.9 1206.9 1771.1 1204.7C1777.3 1202.3 1784.4 1201.1 1792.4 1201.1C1799.8 1201.1 1806 1202.1 1811 1204.1C1816.2 1206.1 1821.1 1207.9 1825.7 1209.5C1824.1 1212.5 1822.6 1216.2 1821.2 1220.6C1819.8 1225 1818.9 1228.4 1818.5 1230.8H1814.9C1813.3 1226 1810.2 1221.7 1805.6 1217.9C1801 1214.1 1795.3 1212.2 1788.5 1212.2C1785.5 1212.2 1782.5 1212.7 1779.5 1213.7C1776.5 1214.7 1773.8 1216.2 1771.4 1218.2C1769 1220.2 1767 1222.8 1765.4 1226C1763.8 1229.2 1763 1233 1763 1237.4C1763 1243.8 1764.7 1248.8 1768.1 1252.4C1771.7 1255.8 1776.1 1258.5 1781.3 1260.5C1786.5 1262.5 1792.2 1264.3 1798.4 1265.9C1804.6 1267.3 1810.3 1269.4 1815.5 1272.2C1820.7 1274.8 1825 1278.5 1828.4 1283.3C1832 1288.1 1833.8 1294.7 1833.8 1303.1C1833.8 1308.9 1832.5 1314.6 1829.9 1320.2C1827.5 1325.8 1823.9 1330.9 1819.1 1335.5C1814.5 1339.9 1808.9 1343.4 1802.3 1346C1795.7 1348.4 1788.2 1349.6 1779.8 1349.6C1770.6 1349.6 1762.9 1348.7 1756.7 1346.9C1750.5 1345.1 1745.3 1343 1741.1 1340.6C1742.3 1338 1743.5 1334.5 1744.7 1330.1C1746.1 1325.5 1746.8 1321.7 1746.8 1318.7H1750.4Z" fill="black"/>
<path d="M1400 297C1400 208.634 1328.37 137 1240 137H760C671.634 137 600 208.634 600 297V561.396C649.825 530.954 718.355 504 804.358 504C903.367 504 983.665 540.161 1051.27 570.944L1051.74 571.156C1121.94 603.116 1176.59 628 1239.12 628C1303.61 628 1345.04 608.305 1369.67 590.754C1382.26 581.782 1390.92 573.019 1396.17 566.951C1397.77 565.096 1399.04 563.506 1400 562.256V297Z" fill="url(#paint0_linear_5_57)"/>
<path d="M1400 700.89C1360.02 721.836 1306.97 738 1239.12 738C1152.32 738 1078.17 704.143 1014.34 674.999C1011.44 673.674 1008.55 672.358 1005.69 671.056C937.129 639.839 876.754 614 804.358 614C732.613 614 678.132 639.805 641.121 665.932C622.901 678.794 609.129 691.604 600 701.099V777C600 865.366 671.634 937 760 937H1240C1328.37 937 1400 865.366 1400 777V700.89Z" fill="url(#paint1_radial_5_57)"/>
<defs>
<linearGradient id="paint0_linear_5_57" x1="1000" y1="137" x2="826.5" y2="661.5" gradientUnits="userSpaceOnUse">
<stop stop-color="#1E5DFF"/>
<stop offset="1" stop-color="#88EAFF"/>
</linearGradient>
<radialGradient id="paint1_radial_5_57" cx="0" cy="0" r="1" gradientUnits="userSpaceOnUse" gradientTransform="translate(840.5 619.866) rotate(26.1299) scale(460.571 427.548)">
<stop offset="0.119877" stop-color="#45EA1B"/>
<stop offset="1" stop-color="#0FAE45"/>
</radialGradient>
</defs>
</svg>
