<svg width="1404" height="1081" viewBox="0 0 1404 1081" fill="none" xmlns="http://www.w3.org/2000/svg">
<rect width="1404" height="1081" fill="white"/>
<path d="M382.345 921.482V701.478H431.69V921.94C431.69 951.822 426.36 973.93 415.699 988.261C405.342 1002.59 384.325 1017.84 352.647 1034L333 996.951C354.322 983.535 367.877 972.557 373.664 964.019C379.451 955.786 382.345 941.607 382.345 921.482ZM382.345 662.6V610H431.69V662.6H382.345Z" fill="#112A3D"/>
<path d="M473.124 706.052H522.013V887.635H531.151L574.556 706.052H611.863L655.268 887.635H664.406V701.478H713.751L710.096 930.173H621.915L592.386 784.588L564.504 930.173H480.733L473.124 706.052Z" fill="#112A3D"/>
<path d="M753.373 925.599H802.262V744.015H811.399L854.805 925.599H892.112L935.517 744.015H944.655V930.173H994L990.345 701.478H902.163L872.635 847.062L844.753 701.478H760.981L753.373 925.599Z" fill="#112A3D"/>
<path fill-rule="evenodd" clip-rule="evenodd" d="M749.553 473H674.447L691 529.5L667 665H757L733 529.5L749.553 473ZM482 536.137C515.871 515.957 552.616 500.098 591.474 489.322L640.777 665H482V536.137ZM942 665H782.223L831.598 489.066C870.799 499.846 907.86 515.796 942 536.137V665Z" fill="#112A3D"/>
<path d="M549 280H697V430H645C611.397 430 594.595 430 581.761 423.46C570.471 417.708 561.292 408.529 555.54 397.239C549 384.405 549 367.603 549 334V280Z" fill="#FA752A"/>
<path d="M875 280H727V430H779C812.603 430 829.405 430 842.239 423.46C853.529 417.708 862.708 408.529 868.46 397.239C875 384.405 875 367.603 875 334V280Z" fill="#E44B29"/>
<path fill-rule="evenodd" clip-rule="evenodd" d="M549 250H875.5V100H645C611.397 100 594.595 100 581.761 106.54C570.471 112.292 561.292 121.471 555.54 132.761C549 145.595 549 162.397 549 196V250ZM665.226 174.375C665.226 195.569 647.491 212.75 625.613 212.75C603.735 212.75 586 195.569 586 174.375C586 153.181 603.735 136 625.613 136C647.491 136 665.226 153.181 665.226 174.375ZM759 153.5L779.5 133L800.5 154L821.5 133L842 153.5L821 174.5L841 194.5L820.5 215L800.5 195L780.5 215L760 194.5L780 174.5L759 153.5Z" fill="#EB582A"/>
</svg>
