<?xml version="1.0" encoding="UTF-8" standalone="no"?>
<svg width="101px" height="100px" viewBox="0 0 101 100" version="1.1" xmlns="http://www.w3.org/2000/svg" xmlns:xlink="http://www.w3.org/1999/xlink" xmlns:sketch="http://www.bohemiancoding.com/sketch/ns">
    <!-- Generator: Sketch 3.3.3 (12072) - http://www.bohemiancoding.com/sketch -->
    <title>rain</title>
    <desc>Created with Sketch.</desc>
    <defs></defs>
    <g id="Page-1" stroke="none" stroke-width="1" fill="none" fill-rule="evenodd" sketch:type="MSPage">
        <g id="Artboard-1" sketch:type="MSArtboardGroup" transform="translate(-524.000000, -277.000000)">
            <path d="M574.911578,303 C574.911578,303 555.445167,332.314079 556.012149,341.709617 C556.050482,353.360085 565.840877,359.140489 575.482583,358.997408 C585.12429,358.854327 594,352.23262 594,341.145885 C594,330.05915 574.911578,303 574.911578,303 Z" id="Path-6" stroke="#FFFFFF" stroke-width="3" stroke-linecap="round" stroke-linejoin="round" sketch:type="MSShapeGroup"></path>
            <path d="M585.164494,331.118843 C574.264151,334.557617 576.103774,323.380415 565.41026,330.319162 C563.381426,334.537868 561.87406,338.513274 562.008313,340.806335 C562.034541,349.022573 568.733231,353.099077 575.330189,352.998172 C581.927146,352.897267 588,348.227453 588,340.408775 C588,338.056317 587.093151,334.521161 585.164494,331.118843 Z" id="Path-6-Copy-5" fill="#FFFFFF" sketch:type="MSShapeGroup"></path>
            <path d="M542.972077,310 C542.972077,310 536.824789,319.422383 537.003837,322.442377 C537.015942,326.18717 540.107645,328.045157 543.152395,327.999167 C546.197144,327.953176 549,325.824771 549,322.261177 C549,318.697584 542.972077,310 542.972077,310 Z" id="Path-6-Copy" stroke="#FFFFFF" stroke-width="3" stroke-linecap="round" stroke-linejoin="round" sketch:type="MSShapeGroup"></path>
            <path d="M606.972077,312 C606.972077,312 600.824789,321.422383 601.003837,324.442377 C601.015942,328.18717 604.107645,330.045157 607.152395,329.999167 C610.197144,329.953176 613,327.824771 613,324.261177 C613,320.697584 606.972077,312 606.972077,312 Z" id="Path-6-Copy-2" stroke="#FFFFFF" stroke-width="3" stroke-linecap="round" stroke-linejoin="round" sketch:type="MSShapeGroup"></path>
            <path d="M556.972077,295 C556.972077,295 550.824789,304.422383 551.003837,307.442377 C551.015942,311.18717 554.107645,313.045157 557.152395,312.999167 C560.197144,312.953176 563,310.824771 563,307.261177 C563,303.697584 556.972077,295 556.972077,295 Z" id="Path-6-Copy-3" stroke="#FFFFFF" stroke-width="3" stroke-linecap="round" stroke-linejoin="round" sketch:type="MSShapeGroup"></path>
            <path d="M593.972077,296 C593.972077,296 587.824789,305.422383 588.003837,308.442377 C588.015942,312.18717 591.107645,314.045157 594.152395,313.999167 C597.197144,313.953176 600,311.824771 600,308.261177 C600,304.697584 593.972077,296 593.972077,296 Z" id="Path-6-Copy-4" stroke="#FFFFFF" stroke-width="3" stroke-linecap="round" stroke-linejoin="round" sketch:type="MSShapeGroup"></path>
        </g>
    </g>
</svg>