<?xml version="1.0" encoding="UTF-8" standalone="no"?>
<svg width="100px" height="100px" viewBox="0 0 100 100" version="1.1" xmlns="http://www.w3.org/2000/svg" xmlns:xlink="http://www.w3.org/1999/xlink" xmlns:sketch="http://www.bohemiancoding.com/sketch/ns">
    <!-- Generator: Sketch 3.3.3 (12072) - http://www.bohemiancoding.com/sketch -->
    <title>wind</title>
    <desc>Created with Sketch.</desc>
    <defs></defs>
    <g id="Page-1" stroke="none" stroke-width="1" fill="none" fill-rule="evenodd" sketch:type="MSPage">
        <g id="Artboard-1" sketch:type="MSArtboardGroup" transform="translate(-393.000000, -277.000000)" stroke="#FFFFFF" stroke-width="3" stroke-linecap="round">
            <path d="M402,319 L451,319 C458.5,319 456.5,311.5 452,310.5" id="Path-1" sketch:type="MSShapeGroup"></path>
            <path d="M399,325.5 L469.002193,325.5 C477.5,325.5 480,317.5 479.5,312.5 C479.393501,308.5 476,303 469.5,303 C463.5,303 461.5,308 461.5,312 C461.5,316 465,318 468.5,318 C472,318 473,314.5 473,314.5" id="Path-2" sketch:type="MSShapeGroup"></path>
            <path d="M395.5,332 C395.5,332 453.5,332 460,332 C466.5,332 470,336.5 470,341.5 C470,346.5 466.5,350 463,350 C459.5,350 456,349 456,344.5" id="Path-3" sketch:type="MSShapeGroup"></path>
            <path d="M474,331 C474,331 482.5,331 485.5,331 C488.5,331 491,334.5 491,338 C491,341.5 489,343.5 486,343.5 C483,343.5 481,342.5 481,339" id="Path-4" sketch:type="MSShapeGroup"></path>
        </g>
    </g>
</svg>